<svg xmlns="http://www.w3.org/2000/svg" width="20" height="20" fill="none" viewBox="0 0 20 20">
    <path fill="#fff" d="M1.818 0A1.82 1.82 0 0 0 0 1.818v5.455A1.82 1.82 0 0 0 1.818 9.09h5.455A1.82 1.82 0 0 0 9.09 7.273V1.818A1.82 1.82 0 0 0 7.273 0H1.818zm10.91 0a1.82 1.82 0 0 0-1.819 1.818v5.455a1.82 1.82 0 0 0 1.818 1.818h5.455A1.82 1.82 0 0 0 20 7.273V1.818A1.82 1.82 0 0 0 18.182 0h-5.455zM1.817 10.91A1.82 1.82 0 0 0 0 12.726v5.455A1.82 1.82 0 0 0 1.818 20h5.455a1.82 1.82 0 0 0 1.818-1.818v-5.455a1.82 1.82 0 0 0-1.818-1.818H1.818zm10.91 0a1.82 1.82 0 0 0-1.819 1.817v5.455A1.82 1.82 0 0 0 12.727 20h5.455A1.82 1.82 0 0 0 20 18.182v-5.455a1.82 1.82 0 0 0-1.818-1.818h-5.455z"/>
</svg>
