<svg xmlns="http://www.w3.org/2000/svg" width="26" height="20" fill="none" viewBox="0 0 26 20">
    <path fill="#fff" d="M1.926 0C.864 0 0 .748 0 1.667v16.666C0 19.253.864 20 1.926 20h13.482c1.062 0 1.926-.747 1.926-1.667v-7.5H9.63c-.532 0-.963-.373-.963-.833 0-.46.431-.833.963-.833h7.704v-7.5C17.334.747 16.47 0 15.408 0H1.926zm15.408 9.167v1.666h5.378l-2.207 1.911a.844.844 0 0 0-.218.27.739.739 0 0 0-.007.646c.048.103.12.196.21.275.091.078.199.14.318.182a1.096 1.096 0 0 0 .746-.007.976.976 0 0 0 .312-.188l3.852-3.333A.781.781 0 0 0 26 10a.78.78 0 0 0-.282-.59l-3.852-3.333a.982.982 0 0 0-.315-.186 1.094 1.094 0 0 0-.913.076.87.87 0 0 0-.354.378.73.73 0 0 0-.05.485.81.81 0 0 0 .27.426l2.208 1.91h-5.378z"/>
</svg>
