<svg xmlns="http://www.w3.org/2000/svg" width="15" height="18" fill="none" viewBox="0 0 15 18">
    <g filter="url(#a)">
        <path fill="#015ec6" d="M7.5 0C3.91 0 1 2.92 1 6.52c0 4.288 4.226 6.34 4.756 6.819.54.487.987 1.581 1.167 2.201A.613.613 0 0 0 7.5 16a.614.614 0 0 0 .577-.46c.18-.62.627-1.713 1.167-2.201C9.774 12.86 14 10.809 14 6.52 14 2.92 11.09 0 7.5 0zm0 8.298c-.98 0-1.773-.796-1.773-1.778S6.521 4.742 7.5 4.742c.98 0 1.773.796 1.773 1.778S8.479 8.298 7.5 8.298z"/>
        <path stroke="#015ec6" stroke-width=".1" d="M6.971 15.526a7.594 7.594 0 0 0-.451-1.158c-.203-.414-.453-.816-.73-1.067a3.671 3.671 0 0 0-.363-.258l-.093-.062a26.925 26.925 0 0 1-.516-.347c-.47-.326-1.045-.76-1.604-1.311C2.097 10.219 1.05 8.646 1.05 6.52 1.05 2.947 3.938.05 7.5.05c3.562 0 6.45 2.897 6.45 6.47 0 2.126-1.047 3.7-2.164 4.803-.559.551-1.134.985-1.604 1.31-.193.134-.367.25-.516.348l-.093.062c-.165.109-.293.196-.362.258-.278.251-.528.653-.73 1.067-.204.415-.361.845-.452 1.158a.564.564 0 0 1-.53.424.563.563 0 0 1-.528-.424zM5.677 6.52c0 1.01.816 1.828 1.823 1.828A1.825 1.825 0 0 0 9.323 6.52c0-1.01-.816-1.828-1.823-1.828A1.825 1.825 0 0 0 5.677 6.52z"/>
    </g>
    <defs>
        <filter id="a" width="15" height="18" x="0" y="0" color-interpolation-filters="sRGB" filterUnits="userSpaceOnUse">
            <feFlood flood-opacity="0" result="BackgroundImageFix"/>
            <feColorMatrix in="SourceAlpha" values="0 0 0 0 0 0 0 0 0 0 0 0 0 0 0 0 0 0 127 0"/>
            <feOffset dy="1"/>
            <feGaussianBlur stdDeviation=".5"/>
            <feColorMatrix values="0 0 0 0 1 0 0 0 0 1 0 0 0 0 1 0 0 0 0.25 0"/>
            <feBlend in2="BackgroundImageFix" result="effect1_dropShadow"/>
            <feBlend in="SourceGraphic" in2="effect1_dropShadow" result="shape"/>
        </filter>
    </defs>
</svg>
