<svg xmlns="http://www.w3.org/2000/svg" width="20" height="20" fill="none" viewBox="0 0 20 20">
    <path fill="#fff" d="M10 0a.77.77 0 0 0-.77.77V.9a.757.757 0 0 1-.621.755c-.176.028-.35.061-.523.1a.757.757 0 0 1-.858-.458l-.051-.12a.769.769 0 1 0-1.421.589l.05.123a.755.755 0 0 1-.283.933c-.15.094-.298.192-.442.294a.758.758 0 0 1-.97-.094l-.094-.093A.768.768 0 1 0 2.93 4.017l.093.094c.26.259.308.67.094.97-.102.144-.2.291-.294.442a.758.758 0 0 1-.934.285l-.122-.05a.77.77 0 0 0-.59 1.421l.12.05c.337.14.54.5.46.857-.04.172-.074.347-.103.523a.756.756 0 0 1-.753.622H.77a.77.77 0 0 0 0 1.538h.132c.368 0 .696.26.755.622.028.176.061.35.1.523a.756.756 0 0 1-.458.858l-.12.051a.769.769 0 1 0 .589 1.421l.123-.05c.34-.142.74-.028.935.283.093.15.19.299.294.443a.758.758 0 0 1-.095.97l-.094.094a.768.768 0 1 0 1.087 1.088l.095-.093c.26-.26.67-.31.97-.096.144.103.292.202.442.296a.759.759 0 0 1 .286.934l-.051.122a.77.77 0 0 0 1.421.59l.05-.12a.758.758 0 0 1 .857-.46c.173.04.347.074.523.102.361.056.62.384.62.752v.132a.77.77 0 0 0 1.54 0v-.132c0-.368.258-.696.621-.755.176-.028.35-.061.523-.1a.756.756 0 0 1 .858.458l.051.12a.769.769 0 1 0 1.421-.589l-.05-.123a.759.759 0 0 1 .283-.934c.15-.094.299-.192.443-.295a.758.758 0 0 1 .97.095l.094.094a.768.768 0 1 0 1.088-1.087l-.093-.095a.756.756 0 0 1-.096-.97 8.58 8.58 0 0 0 .296-.442.759.759 0 0 1 .934-.286l.122.051a.77.77 0 0 0 .59-1.421l-.12-.05a.757.757 0 0 1-.46-.857c.04-.173.074-.347.102-.523a.753.753 0 0 1 .752-.62h.132a.77.77 0 0 0 0-1.54h-.132a.757.757 0 0 1-.755-.621 8.414 8.414 0 0 0-.1-.523.757.757 0 0 1 .458-.858l.12-.051a.769.769 0 1 0-.589-1.421l-.123.05a.759.759 0 0 1-.934-.283 8.527 8.527 0 0 0-.295-.443.758.758 0 0 1 .095-.97l.094-.094a.768.768 0 1 0-1.087-1.088l-.094.095a.758.758 0 0 1-.97.096 8.553 8.553 0 0 0-.443-.296.758.758 0 0 1-.284-.934l.05-.122a.77.77 0 0 0-1.421-.59l-.05.12a.757.757 0 0 1-.858.46 8.362 8.362 0 0 0-.523-.103.755.755 0 0 1-.62-.753V.77A.77.77 0 0 0 10 0zm0 3.846a6.152 6.152 0 0 1 6.101 5.385H11.33A1.539 1.539 0 0 0 10 8.46h-.002L7.614 4.328c.734-.31 1.54-.48 2.387-.48zM6.285 5.102l2.384 4.129c-.136.234-.207.499-.207.769s.072.533.207.766l-2.386 4.13a6.138 6.138 0 0 1 .002-9.794zm5.046 5.667h4.77a6.152 6.152 0 0 1-8.488 4.904l2.385-4.134H10a1.538 1.538 0 0 0 1.331-.77z"/>
</svg>
