<svg xmlns="http://www.w3.org/2000/svg" width="25" height="24" fill="none" viewBox="0 0 25 24">
    <path fill="#fff" d="M12.748 1.312l1.556 4.605 4.86.056a.437.437 0 0 1 .255.787L15.52 9.662l1.448 4.64a.437.437 0 0 1-.67.486l-3.964-2.811-3.965 2.81a.437.437 0 0 1-.67-.486l1.449-4.64-3.9-2.901a.437.437 0 0 1 .257-.787l4.86-.057 1.555-4.605a.437.437 0 0 1 .828 0z" filter="url(#a)"/>
    <defs>
        <filter id="a" width="24.668" height="24" x="0" y="0" color-interpolation-filters="sRGB" filterUnits="userSpaceOnUse">
            <feFlood flood-opacity="0" result="BackgroundImageFix"/>
            <feColorMatrix in="SourceAlpha" values="0 0 0 0 0 0 0 0 0 0 0 0 0 0 0 0 0 0 127 0"/>
            <feOffset dy="4"/>
            <feGaussianBlur stdDeviation="2.5"/>
            <feColorMatrix values="0 0 0 0 0.85 0 0 0 0 0.85 0 0 0 0 0.85 0 0 0 0.15 0"/>
            <feBlend in2="BackgroundImageFix" result="effect1_dropShadow"/>
            <feColorMatrix in="SourceAlpha" values="0 0 0 0 0 0 0 0 0 0 0 0 0 0 0 0 0 0 127 0"/>
            <feOffset dy="2"/>
            <feGaussianBlur stdDeviation="1"/>
            <feColorMatrix values="0 0 0 0 0 0 0 0 0 0 0 0 0 0 0.121569 0 0 0 0.05 0"/>
            <feBlend in2="effect1_dropShadow" result="effect2_dropShadow"/>
            <feBlend in="SourceGraphic" in2="effect2_dropShadow" result="shape"/>
        </filter>
    </defs>
</svg>
