<svg xmlns="http://www.w3.org/2000/svg" width="12" height="12" fill="none" viewBox="0 0 12 12">
    <path fill="#DE9821" d="M10.91 0a1.091 1.091 0 0 0-1.076 1.276l-1.823 1.52a1.09 1.09 0 0 0-.976.113l-1.584-.793a1.09 1.09 0 1 0-2.175.136L1.574 3.387a1.09 1.09 0 0 0-1.254.205 1.09 1.09 0 1 0 1.859.702L3.88 3.16a1.09 1.09 0 0 0 1.083-.067l1.585.792a1.09 1.09 0 1 0 2.162-.251l1.823-1.52A1.091 1.091 0 1 0 10.91 0zm-.546 4.364a.546.546 0 0 0-.546.545V12H12V4.91a.546.546 0 0 0-.546-.546h-1.09zm-6.546 1.09A.546.546 0 0 0 3.273 6v6h2.182V6a.546.546 0 0 0-.546-.545H3.82zm3.273 1.091a.546.546 0 0 0-.546.546V12h2.182V7.09a.546.546 0 0 0-.545-.545H7.09zM.545 7.636A.546.546 0 0 0 0 8.182V12h2.182V8.182a.546.546 0 0 0-.546-.546H.546z"/>
</svg>
