<svg xmlns="http://www.w3.org/2000/svg" width="13" height="16" fill="none" viewBox="0 0 13 16">
    <path fill="#DE9821" d="M12.127 4.18l-4-4A.615.615 0 0 0 7.692 0H1.231C.55 0 0 .55 0 1.23v13.54C0 15.45.55 16 1.23 16h9.847c.68 0 1.23-.55 1.23-1.23V4.614a.615.615 0 0 0-.18-.435zm-8.282 7.706l-.273-.805c-.086-.253-.16-.494-.235-.773h-.015c-.07.278-.14.539-.206.79l-.231.787h-.84l.812-2.23-.782-2.133h.884l.255.807c.068.228.132.453.199.702h.013c.07-.264.126-.475.183-.712l.221-.797h.85L3.861 9.69l.862 2.196h-.88zm3.55 0H5.43V7.522h.85v3.644h1.115v.72zm1.263.038c-.352 0-.69-.088-.836-.175l.123-.733c.175.1.476.171.717.171.4 0 .6-.208.6-.495 0-.311-.197-.471-.567-.707-.597-.367-.822-.824-.822-1.22 0-.7.464-1.28 1.378-1.28.29 0 .56.08.686.156l-.136.73a1.035 1.035 0 0 0-.554-.15c-.364 0-.538.22-.538.451 0 .262.132.4.6.682.579.348.789.79.789 1.247 0 .801-.59 1.323-1.44 1.323zm-.658-7a.616.616 0 0 1-.615-.616V1.172l3.751 3.751H8z"/>
</svg>
