<svg width="52" height="59" viewBox="0 0 52 59" fill="none" xmlns="http://www.w3.org/2000/svg">
<path opacity="0.2" d="M26 59C36.2289 59 44.5211 57.2481 44.5211 55.087C44.5211 52.926 36.2289 51.1741 26 51.1741C15.7711 51.1741 7.47894 52.926 7.47894 55.087C7.47894 57.2481 15.7711 59 26 59Z" fill="#212121"/>
<path d="M26 52.7066C40.3594 52.7066 52 40.9078 52 26.3533C52 11.7988 40.3594 0 26 0C11.6406 0 0 11.7988 0 26.3533C0 40.9078 11.6406 52.7066 26 52.7066Z" fill="#1E88E5"/>
<path d="M4.0856 12.3415C3.74584 12.871 3.72461 12.9141 3.61843 13.1164C3.525 13.3144 3.33813 13.4392 3.23621 13.6286C4.24699 11.7819 5.45313 10.1548 5.87358 9.69415C5.70795 9.90508 5.53807 10.1117 5.37668 10.3226C5.40641 10.2925 5.43614 10.2538 5.46587 10.2236C5.28325 10.5077 5.03692 10.7445 4.86705 11.0372C4.87129 11.0329 4.87979 11.0243 4.88403 11.02C4.69717 11.2998 4.69717 11.2998 4.06012 12.3243C4.06861 12.3243 4.08135 12.3243 4.0941 12.3243C4.0941 12.3329 4.08985 12.3372 4.0856 12.3415Z" fill="#FFAA19"/>
<path d="M4.41262 11.6743C4.39139 11.7044 4.36166 11.7475 4.34042 11.7819C4.40838 11.6786 4.47633 11.5753 4.54853 11.472C4.50181 11.5366 4.45509 11.6054 4.41262 11.6743Z" fill="#FFAA19"/>
<path d="M13.1147 29.2331C13.1104 29.6808 12.8046 29.6205 12.7027 29.5172C12.4989 29.3149 12.5328 28.6261 12.7537 28.4669C13.1147 28.8112 13.1147 29.0953 13.1147 29.2331Z" fill="#FFAA19"/>
<path d="M20.2369 33.0815C20.2369 33.3355 20.2369 33.4044 19.7187 33.3183C19.7187 33.3183 19.5319 33.2709 19.1836 32.905C19.0732 32.7845 18.4956 32.1517 18.2195 31.3898C18.0497 30.9249 17.2045 30.107 16.852 29.7755C17.4169 29.896 19.0902 31.0282 19.2813 31.5835C19.3365 31.7428 19.4512 32.0742 20.1859 32.453C20.2071 32.6812 20.2369 32.9395 20.2369 33.0815Z" fill="#FFAA19"/>
<path d="M23.2395 34.1362C23.1673 34.1706 22.7213 34.2567 22.6067 34.2481C22.5684 34.2438 22.5132 34.2438 22.475 34.2395C22.2244 34.2007 21.9866 34.1103 21.736 34.0673C21.5109 34.0328 21.2859 34.0544 21.0608 34.007C20.428 33.8736 20.2369 33.5809 20.2623 33.5077C20.2793 33.4689 20.343 33.3958 20.5936 33.3828C20.6531 33.3828 20.7592 33.3871 20.8272 33.4474C20.8739 33.4905 20.9758 33.5809 21.1627 33.6368C21.4218 33.71 21.6851 33.6239 21.9441 33.6583C22.4113 33.7186 22.785 34.0544 23.248 34.1232C23.2395 34.1276 23.2395 34.1319 23.2395 34.1362Z" fill="#FFAA19"/>
<path d="M24.2927 31.2003C24.2842 31.2477 24.1823 31.4113 23.8383 31.295C23.8086 31.8891 23.5495 32.0182 23.4263 32.0785C23.4093 32.9567 22.8785 32.8576 22.6364 32.6768C22.6321 32.6725 22.0206 32.2937 21.4557 32.453C21.4812 31.9623 21.2689 31.7858 21.1669 31.704C21.082 31.6351 20.8229 31.4199 21.0778 31.0325C21.0947 31.0023 21.1372 30.9765 21.1669 30.955C21.2391 30.9076 21.2391 30.9076 21.6129 30.9894C21.6851 31.0066 21.753 30.9636 21.8507 30.8474C22.1565 30.4728 22.1565 30.4728 22.3434 30.4427C22.509 30.4169 22.5005 30.3609 22.4835 30.2361C22.4793 30.2103 22.4623 30.1629 22.4835 30.1457C22.6152 30.0338 22.6534 30.0381 22.7553 30.0381C23.1333 30.051 23.1121 29.6334 23.3287 29.4699C23.3541 29.4483 23.3966 29.4483 23.4136 29.4483C23.7194 29.4612 23.8808 29.7669 24.1568 29.8358C24.1865 29.9305 24.0719 30.0165 23.9869 30.0811C24.0336 30.1887 24.0804 30.1973 24.1186 30.2017C23.6217 30.3652 23.6217 30.3652 23.6174 30.4556C23.5962 30.8215 24.0082 31.0669 24.0634 31.0884C24.1228 31.1099 24.1908 31.0884 24.246 31.1186C24.297 31.1401 24.297 31.1831 24.2927 31.2003Z" fill="#FFAA19"/>
<path d="M26.2421 31.1659C26.2421 31.1702 26.0382 31.5792 25.278 31.5017C25.0529 31.4802 24.8576 31.4586 24.7556 31.5361C24.5985 31.6566 24.5985 32.0053 24.6664 31.9752C24.7556 31.9365 24.8108 31.8504 24.9 31.8159C25.0274 31.7686 25.1633 31.7643 25.2992 31.7384C25.4989 31.6997 25.6178 31.7513 25.673 31.7772C25.5243 31.9149 25.3842 31.958 25.2823 31.9881C25.244 32.001 25.1464 32.0268 25.1209 32.0957C25.1166 32.1086 24.9935 32.4358 25.3672 32.5649C25.4054 32.651 25.3375 32.7414 25.3799 32.8275C25.4224 32.9093 25.5626 32.8663 25.5753 32.9868C25.5753 32.9911 25.5965 33.357 25.4394 33.2967C25.3799 33.2752 25.244 33.1805 25.0274 32.7802C24.9935 32.7199 24.8915 32.5262 24.7939 32.5348C24.6749 32.5434 24.6664 32.7113 24.7047 33.202C24.7132 33.3355 24.6197 33.3484 24.5518 33.357C24.4414 33.3226 24.4329 33.1891 24.4074 32.7931C24.3946 32.6209 24.3777 32.6123 24.2375 32.5908C24.2078 32.5865 24.1228 32.5735 24.1186 32.5477C24.1186 32.5391 24.1143 32.5305 24.1186 32.5219C24.178 32.3626 24.3564 32.2851 24.3946 32.1129C24.4031 32.0699 24.4074 32.0139 24.4031 31.9365C24.3989 31.8202 24.3989 31.7772 24.4201 31.7557C24.4329 31.7427 24.4541 31.747 24.4626 31.7298C24.5433 31.5619 24.4498 31.3252 24.6749 31.2219C24.7004 31.209 24.7386 31.1917 24.7684 31.1831C25.0105 31.1401 25.227 31.2994 25.4649 31.2778C25.9575 31.2305 26.0127 31.1358 26.0764 31.0282C26.1019 30.9851 26.1232 30.9679 26.1571 30.9636C26.3015 31.0066 26.2421 31.1659 26.2421 31.1659Z" fill="#FFAA19"/>
<path d="M24.3734 34.2222C24.3649 34.2395 24.3437 34.2567 24.314 34.261C24.2418 34.2782 24.1653 34.2739 24.0931 34.2868C23.9869 34.3083 23.8808 34.3385 23.7788 34.36C23.7703 34.36 23.6812 34.3815 23.6005 34.3858C23.4476 34.3944 23.3669 34.3342 23.3414 34.2739V34.2696C23.4816 34.1491 23.5495 34.1189 23.6727 34.1103C23.7746 34.1103 23.8723 34.1362 23.9742 34.1362C24.0422 34.1362 24.1101 34.1189 24.1781 34.1232C24.2035 34.1232 24.2333 34.1275 24.2587 34.1275C24.3437 34.1448 24.3862 34.1878 24.3734 34.2222Z" fill="#FFAA19"/>
<path d="M24.8618 34.7302C24.8533 34.7689 24.8151 34.7818 24.6919 34.8249C24.6834 34.8292 24.6622 34.8378 24.641 34.8077C24.6028 34.756 24.5985 34.6785 24.5348 34.6398C24.5136 34.6269 24.4753 34.6226 24.4541 34.6226C24.3777 34.6183 24.3479 34.614 24.3012 34.5838C24.2503 34.5494 24.2375 34.502 24.2375 34.502C24.2375 34.502 24.2503 34.4332 24.28 34.4418C24.314 34.4461 24.3479 34.459 24.3819 34.459C24.4456 34.459 24.5051 34.4418 24.5645 34.4375C24.5985 34.4418 24.6155 34.4418 24.8024 34.6226C24.8491 34.6699 24.8661 34.7044 24.8618 34.7302Z" fill="#FFAA19"/>
<path d="M26.7602 34.2825C26.7475 34.3212 26.688 34.3858 26.4417 34.403C26.3865 34.4073 26.3185 34.4116 26.2718 34.4374C26.2378 34.459 26.2166 34.4848 26.1996 34.5149C26.1571 34.5795 26.1274 34.6355 26.0425 34.6914C25.9066 34.7818 25.7961 34.7947 25.7961 34.799C25.7197 34.8076 25.7112 34.812 25.673 34.8378C25.6687 34.8378 25.6008 34.8851 25.5116 34.9971C25.5795 34.8722 25.6517 34.7431 25.7409 34.6484C25.8131 34.5752 25.9278 34.5795 26 34.5106C26.0807 34.4374 26.1232 34.3298 26.2123 34.261C26.2718 34.2136 26.3525 34.1835 26.5606 34.1835C26.6625 34.1835 26.7899 34.1921 26.7602 34.2825Z" fill="#FFAA19"/>
<path d="M33.8017 34.7689C33.7168 34.7819 33.2369 34.7431 33.2326 34.7431C33.084 34.7259 32.9481 34.5623 32.8461 34.4461C32.5276 34.0759 32.1624 33.7143 31.8651 34.0673C31.7674 34.1792 31.7674 34.36 31.6145 34.4332C31.5635 34.459 31.4361 34.5193 31.1091 34.4418C30.8798 33.9898 30.7736 34.0242 30.4551 34.1275C29.9837 34.2825 30.0474 33.9252 30.0516 33.9209C30.196 33.8951 30.4466 34.0888 30.4848 33.8822C30.5188 33.7057 30.3786 33.4302 30.1705 33.2666C30.0856 33.1977 29.9412 33.1116 29.7373 33.0901C29.3721 33.0471 29.2235 32.9868 28.8625 32.7156C28.8073 32.7802 28.7308 32.862 28.6714 32.9222C28.6331 32.8146 28.6289 32.6984 28.5694 32.5951C28.5227 32.5133 28.4165 32.5219 28.3656 32.453C28.3019 32.3669 28.3146 32.2507 28.2424 32.1689C28.1235 32.0312 27.9239 32.0355 27.8007 31.9063C27.8389 31.7815 28.1532 31.7169 28.7308 31.7126C29.0621 31.7212 29.096 31.7514 29.096 32.0398C29.096 32.2206 29.096 32.6381 29.3551 32.5606C29.6736 32.4702 29.8393 32.0312 30.2555 32.1517C30.2725 32.156 32.2685 32.7371 32.2685 32.7371C32.3238 32.7716 32.3875 32.8275 32.4257 32.8792C32.6423 33.159 32.689 33.5378 32.9268 33.8047C33.2114 34.1275 33.6276 34.3213 33.8144 34.7388C33.8059 34.7517 33.8059 34.7646 33.8017 34.7689Z" fill="#FFAA19"/>
<path d="M25.949 34.1878C25.707 34.2179 25.5243 34.2523 25.3884 34.2825C25.0572 34.3514 25.0317 34.347 24.9892 34.347C24.7004 34.3427 24.5433 34.1619 24.539 34.1576C24.5475 34.1447 24.5518 34.1318 24.6282 34.1318C24.7981 34.1275 25.002 34.1576 25.0954 34.2007C25.0996 34.205 25.1081 34.2093 25.1166 34.2093C25.1464 34.2093 25.1846 34.1964 25.2143 34.1921C25.4054 34.1533 25.5201 34.1361 25.707 34.1318C25.7919 34.1361 25.9193 34.1361 26.0212 34.1792C26 34.1792 25.9703 34.1878 25.949 34.1878Z" fill="#FFAA19"/>
<path d="M26.7687 32.6941C26.7602 32.7888 26.6285 32.862 26.5054 32.707C26.4841 32.6812 26.4629 32.6467 26.4502 32.6166C26.5011 32.6037 26.5436 32.5908 26.5606 32.5563C26.5648 32.5434 26.5691 32.5434 26.5818 32.5434C26.6795 32.552 26.7772 32.5951 26.7687 32.6941Z" fill="#FFAA19"/>
<path d="M28.0598 32.7242C28.0428 32.7457 27.9918 32.7586 27.9366 32.7586C27.7795 32.7543 27.6308 32.6898 27.4737 32.6984C27.4015 32.7027 27.3123 32.7285 27.2019 32.7802C27.1509 32.8017 27.1509 32.8017 27.1382 32.8017C27.1042 32.8017 27.0872 32.7716 27.083 32.7027C27.0787 32.6424 27.0872 32.552 27.0957 32.4918C27.4737 32.5219 28.1745 32.5735 28.0598 32.7242Z" fill="#FFAA19"/>
<path d="M27.3293 31.5232C27.3251 31.5361 27.3166 31.5533 27.3081 31.5662C27.2741 31.6222 27.2231 31.6695 27.1849 31.7255C27.1509 31.7772 27.1297 31.8417 27.0915 31.8934C27.0702 31.9192 27.0532 31.9235 27.0405 31.9063C27.0363 31.902 26.9895 31.8417 27.0193 31.5232C27.0235 31.4931 27.0278 31.4371 26.9853 31.3854C26.9258 31.3166 26.8112 31.3338 26.7729 31.2391C26.7687 31.2348 26.7729 31.2262 26.7729 31.2176C26.7942 31.1013 27.2189 30.7914 27.2698 30.7527C27.0872 30.9593 27.083 31.0583 27.2359 31.2907C27.3038 31.3897 27.3463 31.4586 27.3293 31.5232Z" fill="#FFAA19"/>
<path d="M29.2277 33.3527C29.2192 33.3914 29.198 33.4216 29.1852 33.456C29.1598 33.5163 29.164 33.5808 29.1385 33.6411C29.1343 33.6583 29.1215 33.6885 29.0876 33.7143C28.9856 33.7918 28.7945 33.7444 28.7733 33.71C28.7605 33.6885 28.7945 33.6842 28.8158 33.6798C28.8412 33.6755 28.9177 33.6626 29.0026 33.4947C29.0706 33.3656 29.1088 33.2106 29.1088 33.2063C29.2065 33.2838 29.2362 33.3139 29.2277 33.3527Z" fill="#FFAA19"/>
<path d="M28.2424 33.9424C28.2212 34.1318 27.9833 34.1405 27.9579 34.106C27.9451 34.0888 27.9621 34.0587 27.9621 34.0544C27.9664 34.0501 27.9664 34.0415 27.9706 34.0371C27.9833 34.0199 28.0301 33.9554 28.0471 33.9511C28.0598 33.9467 28.0938 33.9338 28.1192 33.9037C28.1532 33.865 28.1702 33.8176 28.1702 33.753C28.1702 33.7272 28.1702 33.7186 28.1787 33.7143C28.2084 33.7272 28.2552 33.8434 28.2424 33.9424Z" fill="#FFAA19"/>
<path d="M33.5766 40.4124C33.2963 41.3809 32.4384 42.0525 32.2515 43.0684C31.7844 42.9564 31.262 43.6237 30.8543 43.0985C30.2427 43.7657 29.7968 42.8187 29.7883 42.6895C29.7713 42.3753 29.7713 42.3753 29.525 42.3538C29.525 42.1385 29.525 42.1385 29.4995 42.0654C29.4655 42.0611 29.4231 42.0697 29.3933 42.0869C29.5335 41.6607 29.5505 41.6177 29.4443 41.5273C28.9304 41.9018 28.9092 42.0137 28.8837 42.1687C28.7223 42.0869 28.7138 41.8846 28.7138 41.8846C28.7096 41.4799 28.1023 41.1657 27.9366 41.1442C27.9324 41.1442 27.5034 41.1356 27.1764 41.2259C27.1382 41.2346 27.0915 41.2561 27.0575 41.269C26.6201 41.4283 26.1614 41.5144 25.7537 41.7511C25.7494 41.7511 25.2823 41.876 24.8661 41.8157C24.5305 41.764 24.4583 42.216 24.1441 42.2074C23.6642 42.1988 23.5495 42.1084 23.507 41.7038C23.7958 41.4756 23.6472 41.213 23.2055 40.4296C22.9889 40.0508 22.8785 39.8485 22.853 39.7236C22.8318 39.6117 22.9422 39.5385 22.9422 39.4309C22.9379 39.1253 22.6194 38.8541 22.8402 38.5226C22.9124 38.4193 23.1418 38.1438 23.7491 37.8554C24.1101 37.6832 24.5178 37.7047 24.8788 37.5541C25.2908 37.3819 25.0274 36.8438 25.3714 36.6372C25.5201 36.5468 25.588 36.7146 25.6305 36.8266C26.293 35.9872 26.293 35.9872 26.4077 35.9226C26.6201 35.8064 27.066 35.8709 27.0787 36.0259C27.083 36.0732 27.066 36.1378 27.0745 36.1809C27.0957 36.1852 27.1254 36.1981 27.1467 36.2024C27.2146 36.2153 27.3803 36.1766 27.4737 35.957C27.6096 35.6299 27.8389 35.0875 29.4613 35.2683C29.9285 35.3199 29.7501 35.5997 29.542 35.8365C28.9389 36.5166 30.608 36.9686 30.6377 36.96C30.7736 36.917 30.8161 36.9084 30.9902 35.9872C31.1558 35.1133 31.2068 34.9411 31.33 34.9024C31.5933 35.0315 31.6485 35.6643 31.6825 36.0431C31.7844 36.0905 31.9245 36.0302 31.9967 36.1593C32.0137 36.1895 32.0392 36.2325 32.0562 36.2627C32.2473 36.607 32.1666 37.0246 32.3535 37.3647C32.4936 37.6186 32.8376 37.6402 32.965 37.9113C32.965 37.9113 33.033 38.0706 33.0542 38.4193C33.343 38.514 33.3515 38.5183 33.3388 38.8239C33.9334 39.1984 33.6913 40.0206 33.5766 40.4124Z" fill="#FFAA19"/>
<path d="M31.4659 44.321C31.4064 44.476 31.1219 44.7429 31.0582 44.7773C30.969 44.8247 30.8458 44.7515 30.8118 44.6611C30.7736 44.5578 30.8076 44.3985 30.8288 44.3038C30.7184 44.2177 30.6844 44.0929 30.7269 43.9293C31.0709 44.1144 31.4149 44.0369 31.4956 43.9896C31.5253 44.1532 31.4871 44.278 31.4659 44.321Z" fill="#FFAA19"/>
<path d="M28.4377 20.5549C28.4293 20.6281 28.4165 20.7615 28.0428 21.0413C27.9833 21.0844 27.9069 21.1231 27.8262 21.0155C27.8262 21.0155 27.686 20.8175 27.703 20.6539C27.7158 20.5291 27.8177 20.3999 27.8517 20.3612C27.8899 20.3138 27.8899 20.3138 27.8941 20.3009C27.8856 20.2966 27.8856 20.2966 27.8559 20.3095C27.7497 20.3526 27.6563 20.3526 27.5799 20.3095C27.6563 20.1933 27.8134 19.9953 28.0215 19.9867C28.3443 20.0125 28.4505 20.43 28.4377 20.5549Z" fill="#FFAA19"/>
<path d="M31.2663 17.9936C31.2535 18.0409 31.1898 18.2045 30.9902 18.3423C31.3427 19.6207 30.8416 19.5992 30.7269 19.5088C30.6717 19.4615 30.6589 19.3797 30.6547 19.3495C30.5783 19.483 30.4593 19.681 30.3532 19.7025C30.2555 19.7241 30.247 19.7241 30.162 19.6939C30.0431 19.6552 29.9539 19.5648 29.835 19.5217C29.7289 20.0555 29.5165 20.2492 29.3296 19.978C29.3042 19.9393 29.3042 19.9393 29.3339 19.7154C29.0069 19.582 28.6756 19.6423 28.3486 19.8919C28.3443 19.8919 28.2891 19.935 28.0003 19.8317C28.0768 19.7413 28.1447 19.6767 28.1872 19.638C28.3061 19.526 28.425 19.4744 28.4802 19.4486C28.8327 19.2893 29.2574 19.4701 29.5887 19.2118C29.7416 19.0913 29.8138 18.8803 30.0219 18.8201C30.3107 18.7383 30.3107 18.7383 30.3744 18.6134C30.6207 18.1313 30.6547 17.6965 30.6589 17.5717C30.6717 17.2446 30.6717 17.2187 30.8628 17.1972C31.2238 17.2532 31.3172 17.8214 31.2663 17.9936Z" fill="#FFAA19"/>
<path d="M32.1666 16.3966C32.1624 16.431 32.1496 16.4697 32.1369 16.5085C31.9882 16.5042 31.9203 16.5128 31.8948 16.5171C31.7292 16.5386 31.7207 16.6075 31.7079 16.7022C31.7037 16.7538 31.6909 16.8486 31.5423 16.9131C31.4361 16.9605 31.3639 16.9217 31.2875 16.8486C31.211 16.7711 31.0029 16.5644 30.7736 16.6936C30.7694 16.7323 30.7651 16.7797 30.9435 16.8959C30.4084 16.7366 30.5485 16.4913 30.6632 16.4353C30.7311 16.4052 30.8161 16.4224 30.8798 16.3707C30.9053 16.3535 30.969 16.3019 30.9732 16.1899C30.9775 16.1168 30.952 16.0177 30.9435 15.9446C30.9307 15.8542 30.9435 15.725 30.9562 15.6346C30.9647 15.5658 31.0114 15.4581 31.0794 15.4366C31.2153 15.7293 31.4064 15.8326 31.8523 16.0048C32.001 16.0651 32.1963 16.1426 32.1666 16.3966Z" fill="#FFAA19"/>
<path d="M31.7377 14.0548C31.2833 13.7492 31.0751 13.9515 31.1431 14.3217C31.2026 14.6661 31.5933 14.8426 31.5933 15.2214C31.3512 14.778 31.0964 14.9416 31.0624 15.0922C31.0539 15.1396 31.0582 15.1826 31.0624 15.2085C31.0624 15.2042 30.9053 14.5542 30.8288 13.9515C30.7948 13.6846 30.867 13.4177 30.8416 13.1508C30.8161 12.9141 30.7269 12.6859 30.7142 12.4492C30.7142 12.4406 30.6844 11.769 30.8373 11.6743C30.8798 11.7217 30.8968 11.7776 30.986 12.2253C31.1304 12.9356 31.2408 13.4952 31.7504 14.0548C31.7462 14.0591 31.7419 14.0548 31.7377 14.0548Z" fill="#FFAA19"/>
<path d="M33.5002 15.2214C33.4152 15.2902 33.2878 15.3806 33.2156 15.4151C33.1774 15.4323 33.1264 15.4581 33.1307 15.3935C33.1307 15.3677 33.1901 15.1826 33.3643 15.174C33.4152 15.1826 33.445 15.1912 33.5002 15.2214Z" fill="#FFAA19"/>
<path d="M32.9948 15.4796C32.9863 15.6346 32.7867 15.8197 32.5064 15.8541C32.4936 15.669 32.7909 15.428 32.9396 15.4194C32.9608 15.4194 32.9948 15.4237 32.9948 15.4796Z" fill="#FFAA19"/>
<path d="M29.1937 20.0598C29.1895 20.1072 29.1683 20.133 29.164 20.1373C29.147 20.1502 29.1385 20.1545 29.0578 20.133C28.9347 20.1029 28.7988 20.0727 28.7648 20.1545C28.7606 20.1674 28.7563 20.1847 28.7563 20.1976C28.7436 20.2751 28.6799 20.529 28.6501 20.5463C28.6459 20.542 28.6459 20.542 28.6459 20.529C28.6459 20.5075 28.6416 20.4645 28.6034 20.3396C28.5779 20.2578 28.5355 20.1804 28.51 20.0986C28.5057 20.0857 28.5142 20.0727 28.5185 20.0598C28.6034 19.8102 28.9092 19.78 28.9134 19.78C28.9602 19.7886 29.2022 19.879 29.1937 20.0598Z" fill="#FFAA19"/>
<path d="M25.1931 23.2883C25.1676 23.4906 25.0104 23.6069 24.917 23.7661C24.8448 23.891 24.8491 23.9814 24.8661 24.1105C24.8703 24.145 24.8788 24.1966 24.8661 24.2181C24.8406 24.2569 24.7386 24.2913 24.6664 24.1966C24.5433 24.033 24.5263 23.5854 24.5305 23.581C24.5433 23.5466 24.8023 23.0817 25.0614 23.0559C25.2101 23.0688 25.1973 23.2883 25.1931 23.2883Z" fill="#FFAA19"/>
<path d="M21.7105 24.8897C21.7105 24.894 21.6468 25.3933 21.4345 25.5698C21.3028 25.6818 21.031 25.6688 20.9249 25.5483C20.6998 25.2857 21.2052 24.9715 21.3198 24.9629C21.3793 24.9586 21.443 24.9715 21.5024 24.95C21.5704 24.9241 21.6171 24.8596 21.6936 24.8466C21.7063 24.851 21.7105 24.8553 21.7105 24.8897Z" fill="#FFAA19"/>
<path d="M34.6638 32.8792C34.6426 32.9696 34.0523 33.4948 33.7932 33.5593C33.6106 33.6067 33.4789 33.413 33.36 33.2063C33.3388 33.1719 33.3133 33.1246 33.2963 33.0901C33.5172 33.215 33.7508 33.2666 33.8909 33.2193C33.9546 33.1977 33.9928 33.1633 33.9971 33.159C34.0693 33.0944 34.1075 33.0083 34.1797 32.9481C34.2264 32.9093 34.2774 32.8792 34.3198 32.8361C34.3581 32.7974 34.3453 32.763 34.3411 32.7501C34.3113 32.664 34.1372 32.5305 33.9419 32.3928C34.3156 32.4272 34.46 32.5262 34.511 32.5563C34.5832 32.608 34.6723 32.8404 34.6638 32.8792Z" fill="#FFAA19"/>
<path d="M7.13492 36.0561C7.19863 36.2928 7.71676 38.9058 7.72101 38.9187C7.78471 39.4912 7.52564 39.3664 7.50016 39.3534C7.3133 39.2501 6.87161 38.4667 6.79516 38.2687C6.71447 38.062 6.76968 37.8382 6.70598 37.6316C6.60405 37.3087 6.37471 37.0418 6.29827 36.7061C6.26854 36.5812 6.27703 36.521 6.3917 36.4779C6.70598 36.3531 6.83763 36.3014 6.79516 35.7633C6.76544 35.406 6.76544 35.406 6.82065 35.3759C6.93956 35.4104 7.05848 35.7676 7.13492 36.0561Z" fill="#FFAA19"/>
<path d="M21.1457 1.20963C20.7592 1.39043 20.1944 1.5497 20.0287 1.59275C19.6465 1.69606 18.606 2.16527 17.8033 2.60004C16.6312 3.23283 16.2532 3.6633 16.1385 3.91728C16.0663 3.9431 15.8879 3.92588 15.8879 3.92588C15.8752 3.89575 15.854 3.8441 15.9729 3.7537C15.9984 3.73648 16.1173 3.63747 16.1937 3.50833C16.1895 3.49542 16.1852 3.4825 16.181 3.47389C16.1725 3.47389 16.1597 3.4782 16.1512 3.4782C16.147 3.46959 16.147 3.46098 16.1428 3.45237C16.2447 3.31032 17.8033 2.40203 17.8161 2.39342L19.8376 1.49374L21.3453 1.04605C21.358 1.04605 21.3708 1.05036 21.3835 1.05036C21.3835 1.0891 21.3793 1.09771 21.1457 1.20963Z" fill="#FFAA19"/>
<path d="M26.6201 29.2805C26.6073 29.4527 26.5818 29.4699 26.5691 29.4785C26.5521 29.4742 26.5436 29.4699 26.4714 29.302C26.4247 29.1901 26.412 29.1772 26.3737 29.1686C26.3483 29.1599 26.2293 29.259 26.2293 29.3838C26.2293 29.4613 26.2676 29.5431 26.2973 29.6162C26.31 29.6464 26.3355 29.698 26.327 29.7196C26.3143 29.7755 26.1826 29.7325 26.1444 29.7152C25.7877 29.5818 25.8599 29.3278 25.9066 29.2245C25.9575 29.1169 25.8301 29.104 25.7452 29.1126C25.6433 29.1212 25.4309 29.1686 25.3715 29.2202C25.3375 29.2503 25.3035 29.302 25.2823 29.345C25.244 29.4311 25.2271 29.5258 25.1888 29.6119C25.1888 29.6076 25.1421 29.0825 25.3672 28.906C25.4182 28.8672 25.4606 28.8543 25.5074 28.8414C25.5753 28.8242 25.5753 28.8242 25.8938 28.8586C26.1232 28.8844 26.2506 28.652 26.4587 28.6219C26.6583 28.6821 26.6201 29.2719 26.6201 29.2805Z" fill="#FFAA19"/>
<path d="M25.3035 26.1467C25.2865 26.2069 25.2525 26.2199 25.2016 26.2414C25.1251 26.2715 25.0189 26.3146 24.9467 26.5944C24.8873 26.8182 24.9552 26.8483 24.9977 26.8656C25.1506 26.9344 25.0742 27.1281 25.0614 27.1497C24.9722 27.2788 24.7556 27.1195 24.7047 27.0334C24.6664 26.9603 24.7684 26.9258 24.7471 26.8613C24.7344 26.8139 24.6707 26.7622 24.6155 26.7192C24.5518 26.6675 24.4626 26.5987 24.4626 26.5427C24.4626 26.4954 24.5051 26.4695 24.5688 26.4308C24.6792 26.3662 24.6962 26.3232 24.7004 26.2414C24.7089 26.0003 24.59 25.7679 24.641 25.5225C24.6452 25.4967 24.6622 25.4665 24.6749 25.445C24.6919 25.445 24.7089 25.445 24.7259 25.445C25.1336 25.4579 25.1676 25.6602 25.1931 25.8066C25.3545 25.8152 25.3035 26.1424 25.3035 26.1467Z" fill="#FFAA19"/>
<path d="M26.3992 27.9847C26.361 28.187 26.2039 28.2215 26.1317 28.2387C26.0637 28.2559 25.9745 28.2688 25.9151 28.3033C25.8089 28.3635 25.7367 28.4625 25.6348 28.5228C25.6305 28.5271 25.1803 28.7682 25.1421 28.7337C25.1209 28.7122 25.1549 28.6476 25.2143 28.5529C25.244 28.5013 25.2568 28.4798 25.2568 28.4582C25.2568 28.441 25.2525 28.4281 25.2398 28.3937C25.1803 28.2387 25.1166 27.946 25.1166 27.9029C25.1209 27.847 25.1379 27.8298 25.1973 27.8255C25.3035 27.8211 25.4989 27.8427 25.5923 28.0278C25.6178 28.0794 25.6263 28.0923 25.656 28.0837C25.7325 28.0708 26.0807 27.7351 25.9915 27.6748C25.8896 27.6059 25.8344 27.8039 25.7409 27.7307C25.7155 27.7092 25.6985 27.636 25.6942 27.6102C25.673 27.5198 25.6263 27.3132 25.3247 27.1238C25.3545 27.1066 25.38 27.1023 25.4352 27.1023C25.5074 27.1066 25.6178 27.1152 25.7494 27.1927C25.8301 27.24 25.8004 27.3562 25.8726 27.4079C26 27.5069 26.1784 27.5026 26.3015 27.6145C26.378 27.6963 26.4205 27.8513 26.3992 27.9847Z" fill="#FFAA19"/>
<path d="M24.9638 27.5112C24.9595 27.6145 24.917 27.7308 24.8916 27.7394C24.8873 27.7351 24.8831 27.7351 24.8873 27.7049C24.9128 27.5241 24.6113 27.3261 24.5221 27.2659C24.5221 27.2659 24.5603 27.2357 24.6707 27.2314C24.7641 27.2357 24.9722 27.2702 24.9638 27.5112Z" fill="#FFAA19"/>
<path d="M24.3267 28.0579C24.3139 28.2344 24.1653 28.4927 24.1016 28.5616C23.9572 28.7166 23.6939 28.8758 23.6174 28.9232C23.558 28.9576 23.5198 28.9103 23.5198 28.9103C23.4985 28.8844 23.4815 28.8328 23.541 28.7596C23.6047 28.6735 23.7406 28.5659 23.9445 28.4411C24.0082 28.4023 24.0124 28.3937 24.0336 28.3722C24.0973 28.299 24.1483 28.1699 24.1823 28.0838C24.212 28.0106 24.2417 27.9374 24.2587 27.9202C24.263 27.9116 24.2757 27.903 24.2842 27.903C24.3139 27.8987 24.3309 27.9891 24.3267 28.0579Z" fill="#FFAA19"/>
<path d="M37.1865 44.0843C37.1398 44.1488 37.0634 44.2306 36.9615 44.3253C36.9062 44.377 36.6132 44.6396 36.3202 44.7859C36.2692 44.8118 36.2182 44.8376 36.1545 44.9151C36.0526 45.0442 35.9847 45.1992 35.8785 45.324C35.853 45.3541 35.7511 45.4661 35.5897 45.5737C35.4156 45.6856 35.2924 45.7588 35.2159 45.7588L34.9356 45.6684C34.9102 45.6555 34.9017 45.6124 34.9017 45.5823C34.8974 45.4618 35.0461 45.225 35.1777 45.0916C35.3731 44.9021 35.6237 44.8118 35.7426 44.7902C35.7468 44.7902 36.0356 44.6912 36.3499 44.3641C36.5537 44.1531 36.6854 43.9336 36.7873 43.7528C36.8553 43.6366 36.8638 43.6323 36.8935 43.6194C36.8978 43.6237 36.902 43.6237 36.9062 43.628C36.9699 43.6796 36.9317 43.7786 36.9997 43.8303C37.0719 43.8905 37.1865 43.8002 37.246 43.8992C37.2672 43.9336 37.246 43.9982 37.1865 44.0843Z" fill="#FFAA19"/>
<path d="M38.7919 42.7111C38.7537 42.7756 38.673 42.8746 38.6178 42.9349C38.4394 43.12 38.312 43.1587 38.261 43.1329C38.2271 43.1157 38.2016 43.1415 38.1846 43.1587C37.985 43.3654 37.917 43.671 37.6877 43.8604C37.573 43.9594 37.4966 43.9594 37.4201 43.8604C37.4711 43.7183 37.6113 43.6236 37.6325 43.4644C37.6367 43.417 37.6155 43.3481 37.5815 43.318C37.5221 43.2577 37.4838 43.219 37.5093 43.1673C37.59 42.9866 37.7854 42.9349 37.9 42.7885C38.0827 42.5561 38.1081 42.2591 37.9892 41.7683C37.934 41.5359 38.0699 41.4971 38.0699 41.4971C38.2016 41.5402 38.2865 41.7855 38.1888 41.975C38.1591 42.0395 38.1294 42.0955 38.1549 42.1644C38.1931 42.2677 38.2186 42.2505 38.363 42.1601C38.3672 42.1601 38.3715 42.1644 38.3757 42.1644C38.4139 42.315 38.2568 42.4399 38.3247 42.5948C38.38 42.724 38.5583 42.6379 38.5796 42.625C38.6645 42.5819 38.707 42.4442 38.8344 42.4915C38.8641 42.5087 38.8684 42.5819 38.7919 42.7111Z" fill="#FFAA19"/>
<path d="M0.382238 30.3476C0.382238 30.3391 0.382238 30.3307 0.377991 30.3222L0.382238 30.3476Z" fill="#FFAA19"/>
<path d="M3.39374 22.4619C3.38509 22.492 3.37643 22.5221 3.3721 22.5652C3.39374 22.6082 3.41539 22.6599 3.41539 22.6685C3.41106 22.5953 3.4024 22.5264 3.39374 22.4619Z" fill="#FFAA19"/>
<path d="M36.6981 7.22326C36.7576 7.18882 36.8341 7.14147 36.8935 7.10273C36.9147 6.81431 36.9147 6.81431 36.6344 6.51299C36.7661 6.55173 36.9275 6.65934 37.0209 6.75835C37.246 6.76696 37.246 6.76696 38.0869 7.31366C38.0572 7.07259 37.968 6.84014 37.9807 6.59047C38.0062 6.57756 38.0444 6.56895 38.0699 6.55173C37.7429 6.27192 37.5263 6.08682 37.0549 5.95768C37.0889 6.01795 37.1313 6.09974 37.1611 6.16C34.0947 4.3219 34.0947 4.3219 33.5766 4.52853C33.6998 4.64906 33.8654 4.81263 33.9928 4.93317C33.9291 4.9633 33.8399 5.00204 33.7762 5.03217C33.5979 4.86429 33.5172 4.61892 33.343 4.45104C33.3218 4.51131 33.2963 4.5931 33.2793 4.65767C32.9353 4.55005 32.6041 4.70932 32.2643 4.70502C31.7079 4.13249 31.7079 4.13249 30.0177 3.67189C30.0007 3.61163 29.9794 3.51692 29.9624 3.44374C29.3466 3.2199 28.8412 3.13811 28.4505 3.20268C28.4293 3.32752 28.4378 3.49971 28.4675 3.62454C28.4165 3.66328 28.3486 3.71494 28.2976 3.75368C28.1745 3.72785 28.0173 3.67189 27.9069 3.62024C27.8644 3.67189 27.805 3.74077 27.7625 3.79242C27.6478 3.72785 27.4949 3.63746 27.3888 3.56858C27.359 3.72355 27.3251 3.93017 27.3038 4.08514C26.4969 3.94309 26.722 2.90135 26.0637 2.62586C25.9873 2.74639 25.8853 2.90566 25.8131 3.0305C25.0912 3.1252 24.3947 2.79804 23.6727 2.87983C24.0846 2.41062 24.7981 2.26426 25.0147 1.58843C24.9807 1.53677 24.934 1.46359 24.8958 1.41193C24.7981 1.39902 24.6665 1.3818 24.5688 1.36889C24.5178 1.40332 24.4499 1.45068 24.3989 1.48081C24.5221 1.31723 24.607 1.201 24.5815 1.00729C24.5475 1.0116 20.9036 2.19539 19.8844 3.35765C19.8844 3.42222 19.8844 3.50832 19.8801 3.56858C19.7697 3.51692 19.6338 3.4007 19.5616 3.30169C18.9925 3.87852 18.9925 3.87852 18.9543 3.93448C18.8906 3.93017 18.8099 3.92157 18.7462 3.91296C18.8226 3.78382 18.8226 3.78381 19.345 3.20699C18.6273 3.70633 18.1091 4.06792 17.6759 4.85138C17.7481 4.86429 17.8458 4.8772 17.918 4.89012C17.9945 5.16131 17.9945 5.16131 17.7694 5.6047C17.7439 5.54013 17.7057 5.45403 17.6802 5.38516C17.7099 5.32059 17.7524 5.23449 17.7821 5.17423C17.7269 5.1484 17.6505 5.11827 17.5952 5.09244C17.0474 5.48417 16.7416 6.16861 16.0578 6.39676C16.164 6.15139 16.215 6.02656 18.3682 3.8613C18.3979 3.80534 18.3979 3.80534 19.0604 3.20268C19.0095 3.16394 18.9415 3.11659 18.8948 3.07785C18.0072 3.62024 17.4424 4.55005 16.559 5.10105C16.5038 4.97191 16.4528 4.78681 16.4316 4.64906C16.3679 4.63184 16.2829 4.60601 16.2192 4.58449C16.2277 4.51992 16.2405 4.43382 16.2489 4.37356C15.9049 4.62753 15.7181 5.03648 15.3741 5.29476C15.3911 5.23019 15.4165 5.1484 15.4335 5.08383C14.9324 5.21728 14.9324 5.21728 14.771 5.31628C14.7922 5.25171 14.822 5.16562 14.8432 5.10105C14.0278 5.29045 13.4205 5.75536 13.017 6.06099C13.1529 5.73814 13.4714 5.57456 13.6668 5.30337C12.966 5.4196 12.7664 6.13848 12.2695 6.50007C11.9043 6.42259 11.8321 6.50868 11.2715 7.18021C11.229 7.13286 11.1696 7.07259 11.1228 7.02524C10.8935 7.11995 10.7958 7.36101 10.6132 7.50306C10.6812 7.14577 10.6812 7.14577 11.6325 6.00503C11.6367 6.07821 11.641 6.17722 11.6452 6.2504C11.6962 6.28914 11.7599 6.3408 11.8109 6.37954C12.5286 6.11695 12.7494 5.73384 13.2378 4.89442C13.2081 4.83416 13.1656 4.75237 13.1359 4.6921C13.1741 4.63614 13.2209 4.56296 13.2591 4.507C12.4904 4.23581 7.90789 7.48584 6.00524 10.1677C6.13265 10.1074 6.28979 9.98256 6.38747 9.87925C6.35774 9.93951 6.35774 9.93951 5.43614 11.3773C5.72494 11.1922 5.72494 11.1922 6.73572 9.96104C7.71252 9.27229 8.30286 8.19181 9.23294 7.46002C9.79354 6.91332 9.8615 6.86166 10.197 6.61199C10.3032 6.56034 10.3032 6.56034 10.3032 6.56034C9.75532 7.75273 8.38355 8.10572 7.72102 9.17758C7.77623 9.21202 7.84418 9.25937 7.89939 9.29812C7.96734 9.26368 8.05228 9.21633 8.12024 9.18189C8.13298 9.24646 8.14996 9.33686 8.1627 9.40143C7.71677 9.64249 7.71677 9.64249 6.73147 10.723C6.65503 10.7703 6.65503 10.7703 6.65503 10.7703C6.6975 10.7014 6.75271 10.611 6.79093 10.5422C6.53187 10.624 6.53187 10.624 5.96277 11.4763C5.85235 11.5839 5.70795 11.7346 5.61452 11.8594C5.61027 11.7991 5.60178 11.713 5.59328 11.6528C5.25352 12.0015 5.25352 12.0015 5.04967 12.1435C5.01994 12.0789 4.97747 11.9972 4.94774 11.9369C5.13461 11.614 5.18557 11.5236 5.98825 10.4432C4.11958 12.221 2.87522 14.8899 2.13624 16.4869C1.86019 17.0767 1.64359 17.6707 1.44399 18.2734C1.33356 18.6048 1.23164 18.9363 1.1382 19.2721L1.12122 19.328C1.2826 18.889 1.93239 17.3005 1.93664 17.2962C2.0598 17.0078 2.12775 16.827 2.19995 16.6505C2.32311 16.5989 2.48025 16.4869 2.55669 16.3707C2.49724 17.3522 2.15748 18.2777 1.99609 19.2419C2.2042 18.4972 2.60766 17.8257 2.76904 17.0638C2.63739 16.53 3.04085 15.8369 3.09181 15.7724C3.08757 16.2416 2.81151 17.9807 2.65013 18.9794C2.87522 18.876 2.96016 18.8373 3.08757 18.7942C2.90495 18.0754 3.13004 17.886 3.27868 17.7611C3.33389 17.7913 3.41034 17.83 3.46555 17.8644C3.27868 18.7469 3.28293 18.7986 3.3169 19.2635C3.37211 19.2979 3.44431 19.3452 3.49952 19.3797C3.58022 19.2678 3.67365 19.1128 3.73735 18.9923C3.73735 19.0741 3.73311 19.186 3.73311 19.2678C3.78407 19.3022 3.85202 19.3496 3.89874 19.3883C4.02615 19.3194 4.18753 19.2118 4.28946 19.1128C4.32344 19.8188 3.83503 21.334 3.22347 21.192V21.2178H3.12579C3.21073 21.4632 3.32964 21.9367 3.39335 22.4661C3.41883 22.3844 3.45705 22.3542 3.51651 22.4145C3.56323 22.4661 3.71187 23.1807 3.71612 23.1893C3.75009 23.3572 3.70763 23.5337 3.7416 23.7016C3.77133 23.8436 3.86476 23.9599 3.89874 24.1019C3.9582 24.3516 3.886 24.6056 3.93271 24.8552C3.9582 24.9844 4.05588 25.0705 4.10684 25.1824C4.24699 25.5182 4.33193 25.897 4.33193 25.9013C4.45085 26.5039 4.63347 27.2874 4.74813 27.9116C5.5041 27.141 6.64653 26.8871 7.24111 25.9013C8.05228 24.5582 8.06502 23.9383 7.28358 23.6155C7.2581 23.4218 7.21988 23.1635 7.19439 22.9741C6.97355 23.6241 6.62955 23.6758 6.23033 23.7317C5.83536 21.7946 5.83536 21.7946 6.17937 21.687C6.23033 21.687 6.23033 21.687 6.23458 21.687C6.23458 21.687 6.23458 21.687 6.23882 21.687C6.23882 21.687 6.23882 21.687 6.24307 21.687C6.39171 22.6211 6.46816 22.6857 6.79093 22.944C6.93108 22.9181 7.11795 22.8407 7.22412 22.7416C7.69978 23.2539 7.69978 23.2539 9.4368 23.3228C9.64915 23.6026 9.79779 23.9297 10.0101 24.2095C10.0823 24.1794 10.18 24.1364 10.2522 24.1062C10.2565 24.1708 10.265 24.2612 10.2692 24.3258C10.18 24.3688 10.0654 24.4248 9.97616 24.4678C10.1928 24.8122 10.1928 24.8122 10.4773 24.894C10.592 24.8079 10.7151 24.6486 10.7831 24.5195C10.7194 27.8083 12.1464 29.1772 12.1591 29.1815C12.2908 29.0652 12.4267 28.8758 12.5159 28.7252C12.9108 28.0493 12.5159 27.2314 12.8981 26.5513C13.3355 25.7721 14.3293 25.587 14.737 24.7778C15.4802 24.6917 15.4802 24.6917 15.7223 24.5023C15.7351 24.5152 16.9327 25.9615 16.6779 26.5125C16.7374 26.5642 16.8138 26.6288 16.869 26.6804C17.1833 26.6374 17.1918 26.6374 17.4933 26.349C17.557 26.3748 17.6377 26.4135 17.7014 26.4394C17.986 27.2702 17.574 28.1612 17.9095 28.9877C18.8226 31.2563 19.4512 31.3424 19.6848 31.3725C19.7017 31.2176 19.8334 29.8659 18.6103 29.5043C18.1856 28.3119 18.1856 28.3119 18.4701 27.649C18.9543 27.804 18.9543 27.804 19.2473 28.3636C19.7485 28.4841 20.0245 28.5487 19.8886 29.203C20.2454 28.9877 20.789 28.6649 21.0056 28.3722C21.0565 28.3033 21.116 28.2086 21.1627 28.1397C21.9357 26.9645 19.7442 26.5082 20.2454 25.29C20.445 24.7993 20.445 24.7993 21.8932 24.597C22.87 24.4592 24.2078 23.9427 25.0359 22.2724C25.4309 21.4761 25.5031 20.9939 24.573 19.737C24.6155 19.5303 24.6155 19.5303 25.4054 19.2247C25.4437 18.5144 24.4499 18.9019 24.0846 18.5274C24.4626 18.0754 24.9468 17.6836 25.1761 17.5846C25.312 17.8601 25.312 17.8601 25.2016 18.2906C25.8259 17.8903 26.0043 17.8903 26.2506 17.8903C26.3228 18.1356 26.2378 18.381 26.2591 18.6221C26.3695 18.7082 26.5479 18.7899 26.688 18.7986C26.688 19.1601 26.6286 19.5174 26.6158 19.879C26.671 19.9135 26.7475 19.9651 26.8027 19.9996C27.8984 19.4959 27.8984 19.4959 27.1127 18.1184C28.2552 16.4654 30.7226 15.7594 30.557 13.168C30.7057 12.4578 30.4636 12.1909 30.2045 11.9799C29.8945 12.1263 29.6524 12.2382 29.0408 11.7518C29.5165 11.1061 30.1536 10.2538 30.642 9.62097C31.7801 9.90077 33.3091 9.84912 33.3218 9.84912C33.8909 8.44579 33.8909 8.44579 34.0863 8.47162C34.099 8.63089 34.1245 8.84612 34.1585 9.00109C34.2179 9.0097 34.2986 9.01831 34.3623 9.02692C34.4557 8.91069 34.4557 8.91069 34.7658 8.40705C34.9356 8.66102 34.9356 8.66102 34.5534 9.49183C33.3218 12.1607 34.2349 13.2025 34.8932 13.5813C34.9526 13.5468 35.0291 13.4952 35.0885 13.4607C35.4538 11.8121 35.4538 11.8121 35.5897 11.7001C35.2669 11.3342 35.509 10.9124 35.4708 10.5206C35.3561 10.3786 35.3561 10.3786 35.3561 10.3786C34.7955 9.62097 35.3179 9.25076 35.5047 9.2809C35.5727 9.28951 35.6449 9.36269 35.7044 9.40143C35.7596 9.28951 35.87 9.15176 35.9677 9.07858C36.1163 9.13454 36.3032 9.23785 36.4306 9.33255C36.7066 8.49314 36.7066 8.49314 36.97 8.14877C37.2885 8.14016 37.2885 8.14016 37.6112 8.44148C37.5348 8.16168 37.3819 7.75273 36.6981 7.22326Z" fill="#FFAA19"/>
<path opacity="0.3" d="M26 46.7231C15.7903 46.7231 6.78666 42.1127 1.47369 35.1047C5.03266 45.3585 14.6691 52.7066 26 52.7066C37.3309 52.7066 46.9673 45.3542 50.5263 35.1047C45.2133 42.117 36.2097 46.7231 26 46.7231Z" fill="#424242"/>
<path opacity="0.2" d="M26 40.7395C16.1173 40.7395 7.19015 37.7004 0.785706 32.806C0.97682 33.5808 1.20616 34.3384 1.46522 35.0831C6.77819 42.1041 15.7818 46.723 26 46.723C36.2182 46.723 45.2218 42.1041 50.5348 35.0831C50.7939 34.3384 51.0232 33.5808 51.2143 32.806C44.8099 37.7004 35.8827 40.7395 26 40.7395Z" fill="#424242"/>
<path opacity="0.4" d="M26 7.78717C31.7302 7.78717 36.3754 6.3051 36.3754 4.47687C36.3754 2.64864 31.7302 1.16656 26 1.16656C20.2698 1.16656 15.6246 2.64864 15.6246 4.47687C15.6246 6.3051 20.2698 7.78717 26 7.78717Z" fill="white"/>
<path d="M5.80985 36.7362C6.09015 35.4233 4.81181 34.6527 4.70988 33.4732C4.5485 31.5921 6.23455 30.249 6.15385 28.3937C6.14536 28.2301 6.09864 28.0149 6.06042 27.8556C5.4616 28.3378 5.1813 28.3722 4.8203 28.4152C4.77359 28.2732 4.73536 28.0967 4.6844 27.9546C4.69289 27.946 4.70139 27.9374 4.70988 27.9288C4.65042 27.8341 4.55699 27.692 4.54425 27.6619C4.26395 27.0162 4.06859 26.8225 3.92419 26.6848C3.94118 25.9573 3.70759 25.6688 3.59717 25.5354C3.71609 24.7993 3.5632 24.2526 3.491 23.9857C3.40606 23.6887 3.34235 23.0774 3.35934 22.6986H3.32537V22.4274H3.33386C3.2744 21.8807 3.18521 21.4503 3.11302 21.2092H3.01109V21.1145C2.69257 21.037 2.59064 20.994 2.2169 20.5721C2.14471 20.6496 2.14471 20.6496 1.87715 21.4072C1.48218 21.1963 1.67754 20.6754 1.36751 20.4214C1.40998 19.9307 1.68178 19.4916 1.68178 18.9923C1.28682 19.1214 1.28257 19.1343 1.05748 19.6939C1.06597 19.6208 1.07447 19.5261 1.08296 19.4572C0.80266 20.4989 0.607299 21.3986 0.458655 22.3198C0.233565 23.7102 0.118896 25.1394 0.118896 26.5944C0.118896 27.8599 0.208083 29.104 0.377962 30.3265C0.390703 30.1931 0.407691 30.0209 0.420432 29.8874C0.586064 30.0338 0.586064 30.0338 0.679498 30.4643C0.743202 30.503 0.828142 30.5504 0.891847 30.5891C0.900341 30.658 1.80919 37.6789 6.24304 42.3065C6.37045 42.2462 6.55307 42.1902 6.69322 42.1601C7.16039 40.223 5.40214 38.6604 5.80985 36.7362Z" fill="#E0E0E0"/>
</svg>
