<?xml version="1.0" encoding="UTF-8"?>
<svg width="32px" height="251px" viewBox="0 0 32 251" version="1.1" xmlns="http://www.w3.org/2000/svg" xmlns:xlink="http://www.w3.org/1999/xlink">
    <title>Group</title>
    <g id="Page-1" stroke="none" stroke-width="1" fill="none" fill-rule="evenodd">
        <g id="Group" fill-rule="nonzero">
            <g id="background" fill="#DE9821">
                <path d="M5.99999,250.999999 C2.68629,250.999999 7.03489e-07,248.314 7.03489e-07,244.999999 L7.03489e-07,5.99999898 C7.03489e-07,2.68629 2.68632,-1.0215e-06 6.00003,-1.0215e-06 L32.0000007,-1.0215e-06 L32.0000007,250.999999 L5.99999,250.999999 Z" id="Path"></path>
            </g>
            <g id="text" transform="translate(10.000000, 36.000000)" fill="#FFFFFF">
                <path d="M2.53125,0.523438 L10.8984,0.523438 L10.8984,1.92969 L4.04688,1.92969 L4.04688,5.41406 L10.3828,5.41406 L10.3828,6.74219 L4.04688,6.74219 L4.04688,10.6328 L11.0156,10.6328 L11.0156,12 L2.53125,12 L2.53125,0.523438 Z M3.36719,28 L1.49219,28 L5.60156,22.1172 L1.75,16.5234 L3.69531,16.5234 L6.625,20.9141 L9.53125,16.5234 L11.3828,16.5234 L7.53125,22.1172 L11.5703,28 L9.64062,28 L6.54688,23.2812 L3.36719,28 Z M2.53125,32.5234 L7.69531,32.5234 C8.71615,32.5234 9.53906,32.8125 10.1641,33.3906 C10.7891,33.9635 11.1016,34.7708 11.1016,35.8125 C11.1016,36.7083 10.8229,37.4896 10.2656,38.1562 C9.70833,38.8177 8.85156,39.1484 7.69531,39.1484 L4.08594,39.1484 L4.08594,44 L2.53125,44 L2.53125,32.5234 Z M9.53125,35.8203 C9.53125,34.9766 9.21875,34.4036 8.59375,34.1016 C8.25,33.9401 7.77865,33.8594 7.17969,33.8594 L4.08594,33.8594 L4.08594,37.8359 L7.17969,37.8359 C7.8776,37.8359 8.44271,37.6875 8.875,37.3906 C9.3125,37.0938 9.53125,36.5703 9.53125,35.8203 Z M6.44531,48.2109 C8.47135,48.2109 9.97135,48.862 10.9453,50.1641 C11.7057,51.1797 12.0859,52.4792 12.0859,54.0625 C12.0859,55.776 11.651,57.2005 10.7812,58.3359 C9.76042,59.6693 8.30469,60.3359 6.41406,60.3359 C4.64844,60.3359 3.26042,59.7526 2.25,58.5859 C1.34896,57.4609 0.898438,56.0391 0.898438,54.3203 C0.898438,52.7682 1.28385,51.4401 2.05469,50.3359 C3.04427,48.9193 4.50781,48.2109 6.44531,48.2109 Z M6.60156,58.9453 C7.97135,58.9453 8.96094,58.4557 9.57031,57.4766 C10.1849,56.4922 10.4922,55.362 10.4922,54.0859 C10.4922,52.737 10.138,51.651 9.42969,50.8281 C8.72656,50.0052 7.76302,49.5938 6.53906,49.5938 C5.35156,49.5938 4.38281,50.0026 3.63281,50.8203 C2.88281,51.6328 2.50781,52.8333 2.50781,54.4219 C2.50781,55.6927 2.82812,56.7656 3.46875,57.6406 C4.11458,58.5104 5.15885,58.9453 6.60156,58.9453 Z M7.27344,69.7812 C8.0026,69.7812 8.57812,69.6354 9,69.3438 C9.42708,69.0521 9.64062,68.526 9.64062,67.7656 C9.64062,66.9479 9.34375,66.3906 8.75,66.0938 C8.43229,65.9375 8.00781,65.8594 7.47656,65.8594 L3.67969,65.8594 L3.67969,69.7812 L7.27344,69.7812 Z M2.125,64.5234 L7.4375,64.5234 C8.3125,64.5234 9.03385,64.651 9.60156,64.9062 C10.6797,65.3958 11.2188,66.2995 11.2188,67.6172 C11.2188,68.3047 11.0755,68.8672 10.7891,69.3047 C10.5078,69.7422 10.112,70.0938 9.60156,70.3594 C10.0495,70.5417 10.3854,70.7812 10.6094,71.0781 C10.8385,71.375 10.9661,71.8568 10.9922,72.5234 L11.0469,74.0625 C11.0625,74.5 11.099,74.8255 11.1562,75.0391 C11.25,75.4036 11.4167,75.638 11.6562,75.7422 L11.6562,76 L9.75,76 C9.69792,75.901 9.65625,75.7734 9.625,75.6172 C9.59375,75.4609 9.56771,75.1589 9.54688,74.7109 L9.45312,72.7969 C9.41667,72.0469 9.13802,71.5443 8.61719,71.2891 C8.32031,71.1484 7.85417,71.0781 7.21875,71.0781 L3.67969,71.0781 L3.67969,76 L2.125,76 L2.125,64.5234 Z M11.1797,80.5234 L11.1797,81.8906 L7.3125,81.8906 L7.3125,92 L5.73438,92 L5.73438,81.8906 L1.86719,81.8906 L1.86719,80.5234 L11.1797,80.5234 Z M11.1797,112.523 L11.1797,113.891 L7.3125,113.891 L7.3125,124 L5.73438,124 L5.73438,113.891 L1.86719,113.891 L1.86719,112.523 L11.1797,112.523 Z M6.44531,128.211 C8.47135,128.211 9.97135,128.862 10.9453,130.164 C11.7057,131.18 12.0859,132.479 12.0859,134.062 C12.0859,135.776 11.651,137.201 10.7812,138.336 C9.76042,139.669 8.30469,140.336 6.41406,140.336 C4.64844,140.336 3.26042,139.753 2.25,138.586 C1.34896,137.461 0.898438,136.039 0.898438,134.32 C0.898438,132.768 1.28385,131.44 2.05469,130.336 C3.04427,128.919 4.50781,128.211 6.44531,128.211 Z M6.60156,138.945 C7.97135,138.945 8.96094,138.456 9.57031,137.477 C10.1849,136.492 10.4922,135.362 10.4922,134.086 C10.4922,132.737 10.138,131.651 9.42969,130.828 C8.72656,130.005 7.76302,129.594 6.53906,129.594 C5.35156,129.594 4.38281,130.003 3.63281,130.82 C2.88281,131.633 2.50781,132.833 2.50781,134.422 C2.50781,135.693 2.82812,136.766 3.46875,137.641 C4.11458,138.51 5.15885,138.945 6.60156,138.945 Z M6.77344,160.211 C8.22656,160.211 9.35417,160.594 10.1562,161.359 C10.9583,162.125 11.4036,162.995 11.4922,163.969 L9.97656,163.969 C9.80469,163.229 9.46094,162.643 8.94531,162.211 C8.4349,161.779 7.71615,161.562 6.78906,161.562 C5.65885,161.562 4.74479,161.961 4.04688,162.758 C3.35417,163.549 3.00781,164.766 3.00781,166.406 C3.00781,167.75 3.32031,168.841 3.94531,169.68 C4.57552,170.513 5.51302,170.93 6.75781,170.93 C7.90365,170.93 8.77604,170.49 9.375,169.609 C9.69271,169.146 9.92969,168.536 10.0859,167.781 L11.6016,167.781 C11.4661,168.99 11.0182,170.003 10.2578,170.82 C9.34635,171.805 8.11719,172.297 6.57031,172.297 C5.23698,172.297 4.11719,171.893 3.21094,171.086 C2.01823,170.018 1.42188,168.37 1.42188,166.141 C1.42188,164.448 1.86979,163.06 2.76562,161.977 C3.73438,160.799 5.07031,160.211 6.77344,160.211 Z M3.39844,184.297 C3.4349,184.948 3.58854,185.477 3.85938,185.883 C4.375,186.643 5.28385,187.023 6.58594,187.023 C7.16927,187.023 7.70052,186.94 8.17969,186.773 C9.10677,186.451 9.57031,185.872 9.57031,185.039 C9.57031,184.414 9.375,183.969 8.98438,183.703 C8.58854,183.443 7.96875,183.216 7.125,183.023 L5.57031,182.672 C4.55469,182.443 3.83594,182.19 3.41406,181.914 C2.6849,181.435 2.32031,180.719 2.32031,179.766 C2.32031,178.734 2.67708,177.888 3.39062,177.227 C4.10417,176.565 5.11458,176.234 6.42188,176.234 C7.625,176.234 8.64583,176.526 9.48438,177.109 C10.3281,177.688 10.75,178.615 10.75,179.891 L9.28906,179.891 C9.21094,179.276 9.04427,178.805 8.78906,178.477 C8.3151,177.878 7.51042,177.578 6.375,177.578 C5.45833,177.578 4.79948,177.771 4.39844,178.156 C3.9974,178.542 3.79688,178.99 3.79688,179.5 C3.79688,180.062 4.03125,180.474 4.5,180.734 C4.80729,180.901 5.5026,181.109 6.58594,181.359 L8.19531,181.727 C8.97135,181.904 9.57031,182.146 9.99219,182.453 C10.7214,182.99 11.0859,183.768 11.0859,184.789 C11.0859,186.06 10.6224,186.969 9.69531,187.516 C8.77344,188.062 7.70052,188.336 6.47656,188.336 C5.04948,188.336 3.93229,187.971 3.125,187.242 C2.31771,186.518 1.92188,185.536 1.9375,184.297 L3.39844,184.297 Z M3.28906,192.523 L6.58594,202.297 L9.84375,192.523 L11.5859,192.523 L7.39844,204 L5.75,204 L1.57031,192.523 L3.28906,192.523 Z" id="Shape"></path>
            </g>
            <g id="Vector" transform="translate(10.000000, 11.000000)" fill="#FFFFFF">
                <path d="M12.1274,4.18031 L8.12739,0.180308 C8.01169,0.0646154 7.85538,0 7.69231,0 L1.23077,0 C0.550769,0 0,0.550769 0,1.23077 L0,14.7692 C0,15.4492 0.550769,16 1.23077,16 L11.0769,16 C11.7569,16 12.3077,15.4492 12.3077,14.7692 L12.3077,4.61538 C12.3077,4.45231 12.2431,4.296 12.1274,4.18031 Z M3.84492,11.8855 L3.57169,11.0812 C3.48615,10.8277 3.41231,10.5871 3.33662,10.3083 L3.32246,10.3083 C3.25169,10.5858 3.18154,10.8468 3.11631,11.0978 L2.88492,11.8855 L2.04431,11.8855 L2.85662,9.65477 L2.07508,7.52246 L2.95877,7.52246 L3.21354,8.32862 C3.28246,8.55692 3.34585,8.78215 3.41292,9.03139 L3.42585,9.03139 C3.49662,8.76739 3.552,8.55569 3.60923,8.31938 L3.83015,7.52246 L4.67938,7.52246 L3.86154,9.68985 L4.72431,11.8855 L3.84492,11.8855 Z M7.39569,11.8855 L5.42954,11.8855 L5.42954,7.52246 L6.27939,7.52246 L6.27939,11.1662 L7.39508,11.1662 L7.39508,11.8855 L7.39569,11.8855 Z M8.65846,11.9243 C8.30646,11.9243 7.968,11.8363 7.82215,11.7495 L7.94462,11.016 C8.12,11.1169 8.42092,11.1871 8.66215,11.1871 C9.06215,11.1871 9.26215,10.9791 9.26215,10.6923 C9.26215,10.3809 9.06462,10.2209 8.69477,9.98462 C8.09846,9.61846 7.87262,9.16123 7.87262,8.76554 C7.87262,8.06462 8.33723,7.48431 9.25108,7.48431 C9.54092,7.48431 9.81046,7.56492 9.93661,7.64062 L9.80123,8.37046 C9.67692,8.29231 9.49108,8.22154 9.24677,8.22154 C8.88308,8.22154 8.70892,8.44123 8.70892,8.672 C8.70892,8.93354 8.84062,9.07139 9.30892,9.35385 C9.888,9.70154 10.0978,10.1434 10.0978,10.6012 C10.0978,11.4025 9.50892,11.9243 8.65846,11.9243 Z M8,4.92308 C7.66031,4.92308 7.38462,4.64738 7.38462,4.30769 L7.38462,1.17169 L11.136,4.92308 L8,4.92308 Z" id="Shape"></path>
            </g>
        </g>
    </g>
</svg>