<svg width="377" height="230" viewBox="0 0 377 230" fill="none" xmlns="http://www.w3.org/2000/svg">
<path d="M4.57031 14.8164H13.5938V50.2363H34.9805V58H4.57031V14.8164ZM73.1836 22.4629H50.332V31.6328H71.3086V39.1328H50.332V50.2363H74.2383V58H41.5137V14.8164H73.1836V22.4629ZM106.553 14.8164H115.928L101.191 58H92.666L78.0762 14.8164H87.7148L97.0898 47.5996L106.553 14.8164ZM129.551 58H120.586V14.8164H129.551V58ZM137.432 28.3516C139.346 27.7461 140.664 26.7207 141.387 25.2754C141.777 24.416 141.943 23.5469 141.885 22.668H137.285V14.9629H145.635V21.1445C145.635 24.0938 144.912 26.418 143.467 28.1172C142.041 29.8164 140.029 30.9199 137.432 31.4277V28.3516ZM161.221 44.6699C161.494 46.6426 162.031 48.1172 162.832 49.0938C164.297 50.8711 166.807 51.7598 170.361 51.7598C172.49 51.7598 174.219 51.5254 175.547 51.0566C178.066 50.1582 179.326 48.4883 179.326 46.0469C179.326 44.6211 178.701 43.5176 177.451 42.7363C176.201 41.9746 174.238 41.3008 171.562 40.7148L166.992 39.6895C162.5 38.6738 159.395 37.5703 157.676 36.3789C154.766 34.3867 153.311 31.2715 153.311 27.0332C153.311 23.166 154.717 19.9531 157.529 17.3945C160.342 14.8359 164.473 13.5566 169.922 13.5566C174.473 13.5566 178.35 14.7676 181.553 17.1895C184.775 19.5918 186.465 23.0879 186.621 27.6777H177.949C177.793 25.0801 176.66 23.2344 174.551 22.1406C173.145 21.418 171.396 21.0566 169.307 21.0566C166.982 21.0566 165.127 21.5254 163.74 22.4629C162.354 23.4004 161.66 24.709 161.66 26.3887C161.66 27.9316 162.344 29.084 163.711 29.8457C164.59 30.3535 166.465 30.9492 169.336 31.6328L176.777 33.4199C180.039 34.2012 182.5 35.2461 184.16 36.5547C186.738 38.5859 188.027 41.5254 188.027 45.373C188.027 49.3184 186.514 52.5996 183.486 55.2168C180.479 57.8145 176.221 59.1133 170.713 59.1133C165.088 59.1133 160.664 57.834 157.441 55.2754C154.219 52.6973 152.607 49.1621 152.607 44.6699H161.221ZM4.57031 69.8164H13.5938V105.236H34.9805V113H4.57031V69.8164ZM49.5117 113H40.5469V69.8164H49.5117V113ZM83.2324 69.8164H92.6074L77.8711 113H69.3457L54.7559 69.8164H64.3945L73.7695 102.6L83.2324 69.8164ZM129.902 77.4629H107.051V86.6328H128.027V94.1328H107.051V105.236H130.957V113H98.2324V69.8164H129.902V77.4629ZM11.1035 154.67C11.377 156.643 11.9141 158.117 12.7148 159.094C14.1797 160.871 16.6895 161.76 20.2441 161.76C22.373 161.76 24.1016 161.525 25.4297 161.057C27.9492 160.158 29.209 158.488 29.209 156.047C29.209 154.621 28.584 153.518 27.334 152.736C26.084 151.975 24.1211 151.301 21.4453 150.715L16.875 149.689C12.3828 148.674 9.27734 147.57 7.55859 146.379C4.64844 144.387 3.19336 141.271 3.19336 137.033C3.19336 133.166 4.59961 129.953 7.41211 127.395C10.2246 124.836 14.3555 123.557 19.8047 123.557C24.3555 123.557 28.2324 124.768 31.4355 127.189C34.6582 129.592 36.3477 133.088 36.5039 137.678H27.832C27.6758 135.08 26.543 133.234 24.4336 132.141C23.0273 131.418 21.2793 131.057 19.1895 131.057C16.8652 131.057 15.0098 131.525 13.623 132.463C12.2363 133.4 11.543 134.709 11.543 136.389C11.543 137.932 12.2266 139.084 13.5938 139.846C14.4727 140.354 16.3477 140.949 19.2188 141.633L26.6602 143.42C29.9219 144.201 32.3828 145.246 34.043 146.555C36.6211 148.586 37.9102 151.525 37.9102 155.373C37.9102 159.318 36.3965 162.6 33.3691 165.217C30.3613 167.814 26.1035 169.113 20.5957 169.113C14.9707 169.113 10.5469 167.834 7.32422 165.275C4.10156 162.697 2.49023 159.162 2.49023 154.67H11.1035ZM75.9668 124.816V132.463H63.0469V168H53.9648V132.463H40.9863V124.816H75.9668ZM90.293 132.316V143.918H100.518C102.549 143.918 104.072 143.684 105.088 143.215C106.885 142.395 107.783 140.773 107.783 138.352C107.783 135.734 106.914 133.977 105.176 133.078C104.199 132.57 102.734 132.316 100.781 132.316H90.293ZM102.656 124.816C105.684 124.875 108.008 125.246 109.629 125.93C111.27 126.613 112.656 127.619 113.789 128.947C114.727 130.041 115.469 131.252 116.016 132.58C116.562 133.908 116.836 135.422 116.836 137.121C116.836 139.172 116.318 141.193 115.283 143.186C114.248 145.158 112.539 146.555 110.156 147.375C112.148 148.176 113.555 149.318 114.375 150.803C115.215 152.268 115.635 154.514 115.635 157.541V160.441C115.635 162.414 115.713 163.752 115.869 164.455C116.104 165.568 116.65 166.389 117.51 166.916V168H107.578C107.305 167.043 107.109 166.271 106.992 165.686C106.758 164.475 106.631 163.234 106.611 161.965L106.553 157.951C106.514 155.197 106.006 153.361 105.029 152.443C104.072 151.525 102.266 151.066 99.6094 151.066H90.293V168H81.4746V124.816H102.656ZM156.562 132.463H133.711V141.633H154.688V149.133H133.711V160.236H157.617V168H124.893V124.816H156.562V132.463ZM176.455 151.682H187.412L182.021 134.689L176.455 151.682ZM177.012 124.816H187.207L202.5 168H192.715L189.932 159.123H174.023L171.035 168H161.602L177.012 124.816ZM236.631 124.816H249.609V168H241.201V138.791C241.201 137.951 241.211 136.779 241.23 135.275C241.25 133.752 241.26 132.58 241.26 131.76L233.086 168H224.326L216.211 131.76C216.211 132.58 216.221 133.752 216.24 135.275C216.26 136.779 216.27 137.951 216.27 138.791V168H207.861V124.816H220.986L228.838 158.771L236.631 124.816ZM266.25 168H257.285V124.816H266.25V168ZM274.541 124.816H284.004L301.201 154.963V124.816H309.609V168H300.586L282.949 137.326V168H274.541V124.816ZM347.08 138.293C346.396 135.344 344.727 133.283 342.07 132.111C340.586 131.467 338.936 131.145 337.119 131.145C333.643 131.145 330.781 132.463 328.535 135.1C326.309 137.717 325.195 141.662 325.195 146.936C325.195 152.248 326.406 156.008 328.828 158.215C331.25 160.422 334.004 161.525 337.09 161.525C340.117 161.525 342.598 160.656 344.531 158.918C346.465 157.16 347.656 154.865 348.105 152.033H338.115V144.826H356.104V168H350.127L349.219 162.609C347.48 164.66 345.918 166.105 344.531 166.945C342.148 168.41 339.219 169.143 335.742 169.143C330.02 169.143 325.332 167.16 321.68 163.195C317.871 159.211 315.967 153.762 315.967 146.848C315.967 139.855 317.891 134.25 321.738 130.031C325.586 125.812 330.674 123.703 337.002 123.703C342.49 123.703 346.895 125.1 350.215 127.893C353.555 130.666 355.469 134.133 355.957 138.293H347.08ZM13.3301 187.316V215.5H21.6504C25.9082 215.5 28.877 213.4 30.5566 209.201C31.4746 206.896 31.9336 204.152 31.9336 200.969C31.9336 196.574 31.2402 193.205 29.8535 190.861C28.4863 188.498 25.752 187.316 21.6504 187.316H13.3301ZM23.1738 179.816C25.8496 179.855 28.0762 180.168 29.8535 180.754C32.8809 181.75 35.332 183.576 37.207 186.232C38.7109 188.381 39.7363 190.705 40.2832 193.205C40.8301 195.705 41.1035 198.088 41.1035 200.354C41.1035 206.096 39.9512 210.959 37.6465 214.943C34.5215 220.314 29.6973 223 23.1738 223H4.57031V179.816H23.1738ZM79.8633 187.463H57.0117V196.633H77.9883V204.133H57.0117V215.236H80.918V223H48.1934V179.816H79.8633V187.463ZM116.572 179.816H129.551V223H121.143V193.791C121.143 192.951 121.152 191.779 121.172 190.275C121.191 188.752 121.201 187.58 121.201 186.76L113.027 223H104.268L96.1523 186.76C96.1523 187.58 96.1621 188.752 96.1816 190.275C96.2012 191.779 96.2109 192.951 96.2109 193.791V223H87.8027V179.816H100.928L108.779 213.771L116.572 179.816ZM149.736 206.682H160.693L155.303 189.689L149.736 206.682ZM150.293 179.816H160.488L175.781 223H165.996L163.213 214.123H147.305L144.316 223H134.883L150.293 179.816ZM181.143 179.816H190.605L207.803 209.963V179.816H216.211V223H207.188L189.551 192.326V223H181.143V179.816ZM233.408 187.316V215.5H241.729C245.986 215.5 248.955 213.4 250.635 209.201C251.553 206.896 252.012 204.152 252.012 200.969C252.012 196.574 251.318 193.205 249.932 190.861C248.564 188.498 245.83 187.316 241.729 187.316H233.408ZM243.252 179.816C245.928 179.855 248.154 180.168 249.932 180.754C252.959 181.75 255.41 183.576 257.285 186.232C258.789 188.381 259.814 190.705 260.361 193.205C260.908 195.705 261.182 198.088 261.182 200.354C261.182 206.096 260.029 210.959 257.725 214.943C254.6 220.314 249.775 223 243.252 223H224.648V179.816H243.252Z" fill="#31314A"/>
<path d="M170.972 94V85.36H171.788V93.304H176.42V94H170.972ZM186.64 94V87.784H187.36V94H186.64ZM186.604 86.428V85.36H187.396V86.428H186.604ZM197.532 87.784H198.312L200.328 93.112L202.344 87.784H203.124L200.712 94H199.908L197.532 87.784ZM217.692 90.46C217.692 90.156 217.648 89.872 217.56 89.608C217.48 89.336 217.356 89.104 217.188 88.912C217.028 88.712 216.824 88.556 216.576 88.444C216.328 88.324 216.044 88.264 215.724 88.264C215.404 88.264 215.12 88.324 214.872 88.444C214.632 88.564 214.424 88.724 214.248 88.924C214.08 89.124 213.944 89.356 213.84 89.62C213.736 89.884 213.668 90.164 213.636 90.46H217.692ZM213.636 91.06C213.636 91.396 213.68 91.716 213.768 92.02C213.856 92.316 213.984 92.576 214.152 92.8C214.328 93.016 214.548 93.192 214.812 93.328C215.076 93.456 215.38 93.52 215.724 93.52C216.196 93.52 216.6 93.396 216.936 93.148C217.272 92.9 217.496 92.548 217.608 92.092H218.412C218.324 92.388 218.208 92.664 218.064 92.92C217.92 93.168 217.74 93.388 217.524 93.58C217.308 93.764 217.052 93.908 216.756 94.012C216.46 94.116 216.116 94.168 215.724 94.168C215.228 94.168 214.8 94.084 214.44 93.916C214.08 93.748 213.784 93.52 213.552 93.232C213.32 92.936 213.148 92.592 213.036 92.2C212.924 91.8 212.868 91.372 212.868 90.916C212.868 90.46 212.932 90.032 213.06 89.632C213.196 89.232 213.384 88.884 213.624 88.588C213.872 88.284 214.172 88.048 214.524 87.88C214.876 87.704 215.276 87.616 215.724 87.616C216.58 87.616 217.252 87.912 217.74 88.504C218.228 89.088 218.468 89.94 218.46 91.06H213.636ZM241.097 94V87.784H241.817V94H241.097ZM241.061 86.428V85.36H241.853V86.428H241.061ZM253.369 94H252.649V87.784H253.369V88.648C253.657 88.344 253.953 88.096 254.257 87.904C254.569 87.712 254.941 87.616 255.373 87.616C255.757 87.616 256.113 87.684 256.441 87.82C256.769 87.948 257.045 88.176 257.269 88.504C257.421 88.728 257.509 88.96 257.533 89.2C257.565 89.432 257.581 89.676 257.581 89.932V94H256.861V89.944C256.861 89.384 256.737 88.964 256.489 88.684C256.241 88.404 255.829 88.264 255.253 88.264C255.029 88.264 254.825 88.3 254.641 88.372C254.457 88.436 254.289 88.524 254.137 88.636C253.993 88.748 253.869 88.876 253.765 89.02C253.661 89.164 253.581 89.316 253.525 89.476C253.453 89.676 253.409 89.868 253.393 90.052C253.377 90.236 253.369 90.436 253.369 90.652V94ZM280.765 94V85.36H281.581V93.304H286.213V94H280.765ZM300.825 90.46C300.825 90.156 300.781 89.872 300.693 89.608C300.613 89.336 300.489 89.104 300.321 88.912C300.161 88.712 299.957 88.556 299.709 88.444C299.461 88.324 299.177 88.264 298.857 88.264C298.537 88.264 298.253 88.324 298.005 88.444C297.765 88.564 297.557 88.724 297.381 88.924C297.213 89.124 297.077 89.356 296.973 89.62C296.869 89.884 296.801 90.164 296.769 90.46H300.825ZM296.769 91.06C296.769 91.396 296.813 91.716 296.901 92.02C296.989 92.316 297.117 92.576 297.285 92.8C297.461 93.016 297.681 93.192 297.945 93.328C298.209 93.456 298.513 93.52 298.857 93.52C299.329 93.52 299.733 93.396 300.069 93.148C300.405 92.9 300.629 92.548 300.741 92.092H301.545C301.457 92.388 301.341 92.664 301.197 92.92C301.053 93.168 300.873 93.388 300.657 93.58C300.441 93.764 300.185 93.908 299.889 94.012C299.593 94.116 299.249 94.168 298.857 94.168C298.361 94.168 297.933 94.084 297.573 93.916C297.213 93.748 296.917 93.52 296.685 93.232C296.453 92.936 296.281 92.592 296.169 92.2C296.057 91.8 296.001 91.372 296.001 90.916C296.001 90.46 296.065 90.032 296.193 89.632C296.329 89.232 296.517 88.884 296.757 88.588C297.005 88.284 297.305 88.048 297.657 87.88C298.009 87.704 298.409 87.616 298.857 87.616C299.713 87.616 300.385 87.912 300.873 88.504C301.361 89.088 301.601 89.94 301.593 91.06H296.769ZM311.333 87.784H312.113L314.129 93.112L316.145 87.784H316.925L314.513 94H313.709L311.333 87.784ZM326.89 94V87.784H327.61V94H326.89ZM326.854 86.428V85.36H327.646V86.428H326.854ZM339.414 86.776C339.414 87.128 339.33 87.412 339.162 87.628C339.002 87.836 338.794 87.98 338.538 88.06V87.616C338.634 87.552 338.726 87.464 338.814 87.352C338.902 87.24 338.946 87.064 338.946 86.824V86.416H338.538V85.36H339.414V86.776ZM349.632 92.056C349.744 92.592 349.944 92.972 350.232 93.196C350.528 93.412 350.948 93.52 351.492 93.52C351.756 93.52 351.984 93.488 352.176 93.424C352.368 93.36 352.524 93.276 352.644 93.172C352.772 93.06 352.868 92.936 352.932 92.8C352.996 92.664 353.028 92.52 353.028 92.368C353.028 92.064 352.928 91.84 352.728 91.696C352.536 91.544 352.292 91.428 351.996 91.348C351.7 91.26 351.38 91.188 351.036 91.132C350.692 91.068 350.372 90.976 350.076 90.856C349.78 90.736 349.532 90.564 349.332 90.34C349.14 90.116 349.044 89.8 349.044 89.392C349.044 88.872 349.232 88.448 349.608 88.12C349.992 87.784 350.532 87.616 351.228 87.616C351.9 87.616 352.444 87.768 352.86 88.072C353.284 88.368 353.54 88.868 353.628 89.572H352.896C352.832 89.092 352.648 88.756 352.344 88.564C352.048 88.364 351.672 88.264 351.216 88.264C350.76 88.264 350.412 88.364 350.172 88.564C349.932 88.756 349.812 89.012 349.812 89.332C349.812 89.612 349.908 89.828 350.1 89.98C350.3 90.124 350.548 90.244 350.844 90.34C351.14 90.428 351.46 90.508 351.804 90.58C352.148 90.652 352.468 90.756 352.764 90.892C353.06 91.02 353.304 91.196 353.496 91.42C353.696 91.644 353.796 91.956 353.796 92.356C353.796 92.652 353.732 92.916 353.604 93.148C353.476 93.372 353.3 93.56 353.076 93.712C352.852 93.864 352.584 93.976 352.272 94.048C351.968 94.128 351.632 94.168 351.264 94.168C350.896 94.168 350.568 94.112 350.28 94C350 93.896 349.76 93.748 349.56 93.556C349.36 93.364 349.204 93.14 349.092 92.884C348.98 92.628 348.916 92.352 348.9 92.056H349.632Z" fill="#A50716"/>
<rect x="158" y="85" width="3" height="3" fill="#A50716"/>
<path d="M202.008 11.63H202.776C202.968 11.63 203.13 11.61 203.262 11.57C203.398 11.53 203.506 11.478 203.586 11.414C203.666 11.346 203.724 11.268 203.76 11.18C203.796 11.088 203.814 10.99 203.814 10.886C203.814 10.786 203.796 10.692 203.76 10.604C203.724 10.512 203.666 10.432 203.586 10.364C203.506 10.296 203.398 10.244 203.262 10.208C203.13 10.168 202.968 10.148 202.776 10.148H202.008V11.63ZM202.008 14H201.576V9.752H202.884C203.316 9.752 203.656 9.846 203.904 10.034C204.156 10.222 204.282 10.506 204.282 10.886C204.282 11.182 204.188 11.432 204 11.636C203.816 11.836 203.548 11.952 203.196 11.984L204.42 14H203.892L202.728 12.026H202.008V14Z" fill="#A50716"/>
<path d="M202.008 11.63H201.508V12.13H202.008V11.63ZM203.262 11.57L203.121 11.0903L203.117 11.0915L203.262 11.57ZM203.586 11.414L203.898 11.8044L203.904 11.7998L203.91 11.795L203.586 11.414ZM203.76 11.18L204.223 11.3693L204.226 11.3622L203.76 11.18ZM203.76 10.604L203.294 10.7862L203.297 10.7933L203.76 10.604ZM203.586 10.364L203.262 10.745L203.262 10.745L203.586 10.364ZM203.262 10.208L203.117 10.6865L203.125 10.6891L203.134 10.6914L203.262 10.208ZM202.008 10.148V9.648H201.508V10.148H202.008ZM202.008 14V14.5H202.508V14H202.008ZM201.576 14H201.076V14.5H201.576V14ZM201.576 9.752V9.252H201.076V9.752H201.576ZM203.904 10.034L203.602 10.4325L203.605 10.4348L203.904 10.034ZM204 11.636L203.632 11.2972L203.632 11.2975L204 11.636ZM203.196 11.984L203.151 11.4861L202.353 11.5586L202.769 12.2435L203.196 11.984ZM204.42 14V14.5H205.309L204.847 13.7405L204.42 14ZM203.892 14L203.461 14.254L203.606 14.5H203.892V14ZM202.728 12.026L203.159 11.772L203.014 11.526H202.728V12.026ZM202.008 12.026V11.526H201.508V12.026H202.008ZM202.008 12.13H202.776V11.13H202.008V12.13ZM202.776 12.13C202.999 12.13 203.214 12.1071 203.407 12.0485L203.117 11.0915C203.046 11.1129 202.937 11.13 202.776 11.13V12.13ZM203.403 12.0497C203.579 11.9979 203.752 11.9214 203.898 11.8044L203.274 11.0236C203.26 11.0346 203.217 11.0621 203.121 11.0903L203.403 12.0497ZM203.91 11.795C204.044 11.6806 204.153 11.5389 204.223 11.3693L203.297 10.9907C203.295 10.9971 203.288 11.0114 203.262 11.033L203.91 11.795ZM204.226 11.3622C204.286 11.2091 204.314 11.049 204.314 10.886H203.314C203.314 10.931 203.306 10.9669 203.294 10.9978L204.226 11.3622ZM204.314 10.886C204.314 10.7245 204.285 10.5659 204.223 10.4147L203.297 10.7933C203.307 10.8181 203.314 10.8475 203.314 10.886H204.314ZM204.226 10.4218C204.158 10.248 204.049 10.1011 203.91 9.98303L203.262 10.745C203.283 10.7629 203.29 10.776 203.294 10.7862L204.226 10.4218ZM203.91 9.98303C203.757 9.85321 203.575 9.77356 203.39 9.72465L203.134 10.6914C203.221 10.7144 203.255 10.7388 203.262 10.745L203.91 9.98303ZM203.407 9.72949C203.214 9.67088 202.999 9.648 202.776 9.648V10.648C202.937 10.648 203.046 10.6651 203.117 10.6865L203.407 9.72949ZM202.776 9.648H202.008V10.648H202.776V9.648ZM201.508 10.148V11.63H202.508V10.148H201.508ZM202.008 13.5H201.576V14.5H202.008V13.5ZM202.076 14V9.752H201.076V14H202.076ZM201.576 10.252H202.884V9.252H201.576V10.252ZM202.884 10.252C203.248 10.252 203.469 10.3316 203.602 10.4325L204.206 9.63555C203.843 9.36036 203.384 9.252 202.884 9.252V10.252ZM203.605 10.4348C203.704 10.5083 203.782 10.6269 203.782 10.886H204.782C204.782 10.3851 204.608 9.93572 204.203 9.63324L203.605 10.4348ZM203.782 10.886C203.782 11.0656 203.729 11.192 203.632 11.2972L204.368 11.9748C204.647 11.672 204.782 11.2984 204.782 10.886H203.782ZM203.632 11.2975C203.555 11.3814 203.417 11.4618 203.151 11.4861L203.241 12.4819C203.679 12.4422 204.077 12.2906 204.368 11.9745L203.632 11.2975ZM202.769 12.2435L203.993 14.2595L204.847 13.7405L203.623 11.7245L202.769 12.2435ZM204.42 13.5H203.892V14.5H204.42V13.5ZM204.323 13.746L203.159 11.772L202.297 12.28L203.461 14.254L204.323 13.746ZM202.728 11.526H202.008V12.526H202.728V11.526ZM201.508 12.026V14H202.508V12.026H201.508Z" fill="#A50716"/>
<circle cx="203" cy="12" r="5" stroke="#A50716" stroke-width="2"/>
<path d="M360.573 84.876H361.32C361.456 84.876 361.568 84.895 361.656 84.933C361.744 84.969 361.813 85.016 361.863 85.074C361.915 85.13 361.951 85.194 361.971 85.266C361.991 85.336 362.001 85.404 362.001 85.47C362.001 85.538 361.989 85.604 361.965 85.668C361.941 85.73 361.906 85.787 361.86 85.839C361.816 85.889 361.761 85.932 361.695 85.968C361.631 86.002 361.559 86.023 361.479 86.031L362.082 87H361.722L361.182 86.064H360.861V87H360.573V84.876ZM360.861 85.812H361.239C361.295 85.812 361.35 85.808 361.404 85.8C361.46 85.79 361.509 85.773 361.551 85.749C361.595 85.725 361.63 85.691 361.656 85.647C361.682 85.601 361.695 85.542 361.695 85.47C361.695 85.398 361.682 85.34 361.656 85.296C361.63 85.25 361.595 85.215 361.551 85.191C361.509 85.167 361.46 85.151 361.404 85.143C361.35 85.133 361.295 85.128 361.239 85.128H360.861V85.812Z" fill="#A50716"/>
<circle cx="361.2" cy="85.8" r="1.8" stroke="#A50716" stroke-width="0.4"/>
</svg>
