<svg width="52" height="59" viewBox="0 0 52 59" fill="none" xmlns="http://www.w3.org/2000/svg">
<path opacity="0.2" d="M26 59C36.2289 59 44.5211 57.2481 44.5211 55.087C44.5211 52.926 36.2289 51.1741 26 51.1741C15.7711 51.1741 7.47893 52.926 7.47893 55.087C7.47893 57.2481 15.7711 59 26 59Z" fill="#212121"/>
<path d="M26 52.7066C40.3594 52.7066 52 40.9078 52 26.3533C52 11.7988 40.3594 0 26 0C11.6406 0 0 11.7988 0 26.3533C0 40.9078 11.6406 52.7066 26 52.7066Z" fill="#1E88E5"/>
<path d="M51.6602 27.6274C51.6518 27.5327 51.6433 27.4079 51.6305 27.3132C51.6263 27.2659 51.6178 27.2056 51.6093 27.1582C51.5838 26.9817 51.5074 26.8225 51.4819 26.646C51.4437 26.3705 51.4691 26.0907 51.4267 25.8152C51.4097 25.7162 51.3375 25.5956 51.3247 25.4923C51.2653 25.0705 51.3035 24.64 51.2101 24.2181L50.8831 22.7718C50.8024 22.4661 50.8024 22.4661 50.8278 22.3585C50.8363 22.3542 50.8491 22.3456 50.8533 22.3413C50.8618 22.3499 51.7112 24.3516 51.6687 27.7738C51.6645 27.7351 51.6645 27.6748 51.6602 27.6274ZM50.7939 22.4532C50.6325 21.8807 50.4584 21.4029 50.3309 21.1833C50.4626 21.3857 50.641 21.8807 50.8109 22.5092C50.8024 22.4877 50.7981 22.4661 50.7939 22.4532ZM51.7792 22.8966C50.8236 15.5055 46.8484 9.07856 41.1447 4.92885L41.1914 4.96759C41.3274 5.07521 41.6459 5.32918 42.3551 5.94475C42.0154 5.69939 41.7053 5.42389 41.3656 5.17852C43.4508 7.10702 43.4508 7.10702 43.4806 7.13715C43.3574 7.05967 43.3574 7.05967 42.9539 6.76695C43.1451 6.97357 43.3829 7.13715 43.5783 7.34377C42.8945 6.95205 42.3636 6.36231 41.7393 5.88879C41.9474 5.99641 42.1513 6.11694 42.3551 6.23317C42.2022 5.69938 40.0957 4.48977 39.2336 4.20135C39.2209 4.64474 42.5335 10.116 43.1833 10.159C43.196 10.0299 43.196 9.8491 43.1705 9.71996C43.8203 10.1031 44.0879 10.8263 44.5678 11.36C44.7292 10.9985 44.7292 10.9985 44.0751 9.87062C44.1304 8.64809 42.8902 8.26928 42.474 7.35238C41.9177 6.75403 41.9049 6.73251 41.7351 6.49575C41.7351 6.4441 41.7351 6.4441 41.7351 6.4441C42.9454 7.05967 42.8053 9.54777 44.5975 9.12591C44.6485 9.17757 44.7122 9.24644 44.7632 9.2981C44.674 9.37128 44.5381 9.45307 44.4319 9.49612C44.64 9.90076 45.0435 10.1461 45.277 10.5292C45.2983 10.6756 45.2983 10.6756 45.2983 10.6756C45.2218 10.5723 45.0987 10.4431 45.0052 10.3571C44.984 10.7014 45.3195 11.0975 45.5064 11.3859C45.5149 11.5064 45.5616 11.6614 45.6083 11.769C45.5064 11.713 45.3747 11.6312 45.277 11.5624C45.277 11.6872 45.2601 11.8551 45.2346 11.9799C44.657 11.9627 44.657 11.9627 43.608 10.3398C43.591 10.4819 43.574 10.6799 43.608 10.822C43.7099 11.2524 44.1856 11.4203 44.3045 11.8422C44.4149 12.2253 44.1261 12.574 44.2153 12.9571C43.8798 13.3488 44.0836 14.1925 43.3659 14.2399C43.3404 14.3001 43.3107 14.3862 43.2852 14.4465C43.6929 15.1094 44.8014 15.3376 44.5466 16.4094C44.1813 16.4525 43.8161 16.3965 43.4508 16.4224C43.4084 16.4869 43.3532 16.5687 43.3149 16.6333C43.4084 17.0078 43.5443 17.5114 43.6462 17.8859C43.6037 18.0022 43.574 18.1701 43.5867 18.2906C43.6504 18.3336 43.7354 18.3896 43.7991 18.4326C43.8373 18.6005 43.8713 18.7641 43.9053 18.932C44.2026 18.9449 44.2705 18.9492 44.5168 19.2721C44.7929 19.2419 45.0307 19.0568 45.3153 19.0525C45.5956 18.5015 45.2048 17.83 45.6168 17.3005C45.621 16.9475 45.5658 16.7667 45.5106 16.5859C45.7315 16.5343 45.9608 16.6032 46.1816 16.5601C46.2199 16.4826 46.2708 16.3836 46.3048 16.3061C46.4917 16.4051 47.8592 17.9634 47.9059 18.381C47.821 18.4714 47.6766 18.5661 47.5619 18.6091C47.7191 18.7813 47.9272 19.0138 48.0843 19.1903C47.9739 18.7555 48.2966 18.2648 47.9229 17.8644C47.9824 17.8644 48.0673 17.8601 48.1268 17.8601C47.9909 17.5459 47.6681 17.3522 47.5747 17.0078C47.0098 16.7796 46.6913 15.7594 46.6913 15.7508C46.7507 15.7379 46.8272 15.7207 46.8824 15.7078C47.6086 16.8012 48.1225 18.0237 48.9549 19.0482C49.0314 18.833 49.0314 18.833 49.2182 18.7469C49.0569 18.5489 48.9379 18.4068 48.7001 17.9419C48.7298 17.8946 48.7723 17.83 48.8063 17.7826C48.785 17.7224 48.7553 17.6406 48.7341 17.5846C49.5283 17.8859 49.3584 18.7598 49.7236 19.3108C49.7958 19.2204 49.851 19.0611 49.8383 18.9492C49.8893 19.0697 49.9699 19.2247 50.0464 19.3366C50.0931 19.2979 50.1568 19.2505 50.2035 19.2118C50.4668 19.5131 50.6877 20.8949 50.4626 21.2006C50.4074 21.1833 50.3352 21.1618 50.28 21.1446C50.212 21.0886 50.212 21.0886 50.212 21.0886C49.919 21.0068 49.7873 20.9724 49.2692 20.5721C49.2097 20.5893 49.1333 20.6151 49.0738 20.6366C49.0866 20.882 49.1375 21.1231 49.1291 21.3684C49.0569 21.3598 48.9592 21.3641 48.8955 21.3383C48.7638 21.2823 48.6152 21.1403 48.5345 21.0198C48.3009 20.684 47.821 20.6926 47.6044 20.3353C47.3835 19.9694 47.5364 19.5389 47.4005 19.1601C47.2391 18.7168 45.7909 19.1989 45.6635 19.3969C45.4766 19.6853 45.2346 19.8101 44.657 19.4916C44.5296 19.6724 44.4701 19.8876 44.3724 20.0856C44.3639 20.0986 44.3639 20.0986 44.3639 20.0986L42.6354 24.5926C43.1323 25.3201 43.0389 25.7248 42.7756 26.5642C42.2872 28.1397 44.657 30.4083 44.6867 30.4212C45.1454 30.2404 45.2983 30.193 45.7994 30.2576C46.8442 29.4225 47.133 29.8745 47.1924 30.3997C47.3835 30.4771 47.3835 30.4771 47.7488 30.3179C47.753 30.3351 47.4515 34.9196 47.409 35.0875C47.4005 35.1219 45.6253 40.3951 44.7929 42.117C47.2816 42.4528 51.6772 33.6325 51.9193 27.8169C51.8896 27.9589 51.8386 28.144 51.7834 28.2775C51.3035 27.5758 51.9363 26.9947 51.9915 26.3533V26.349C51.9915 25.4062 51.9405 24.4721 51.8471 23.5509V23.6413C51.7282 23.0645 51.5116 21.7946 51.5074 21.786C51.5243 21.631 51.5286 21.631 51.5286 21.631C51.622 22.0572 51.6985 22.479 51.7792 22.8966Z" fill="#E0E0E0"/>
<path d="M43.6377 12.5008C43.85 13.1551 43.85 13.1551 43.952 13.2799C44.0369 13.3617 44.0029 13.4091 43.8543 13.4134C43.196 13.4435 42.9879 13.6975 42.9072 13.7922C42.9879 13.2713 42.9922 13.2369 43.0176 13.1938C42.6779 12.7763 42.6779 12.7763 42.6779 12.7677C42.7161 12.7418 42.7713 12.7763 42.801 12.7332C42.7798 12.5869 42.6567 12.4793 42.6439 12.3286C42.6397 12.2683 42.6397 12.2683 42.7501 12.2081C42.7543 12.1779 42.5547 11.5968 42.2022 11.7001C42.181 11.6743 42.1513 11.6441 42.1343 11.6183C42.0026 11.4375 41.9517 11.2094 41.82 11.0286C41.7775 10.9726 41.7648 10.9554 41.6671 10.921C41.5524 10.8822 41.5185 10.8263 41.442 10.6627C41.1702 10.0729 41.1277 9.95671 41.3486 9.84479C41.476 9.97823 41.5524 10.1375 41.5779 10.3355C41.5907 10.4259 41.5992 10.4474 41.6289 10.4776C41.7308 10.5766 41.8327 10.271 41.9177 10.3872C41.9771 10.4647 42.0069 10.5637 42.0621 10.7918C42.1385 11.0931 42.181 11.261 42.3381 11.1792C42.3466 11.1835 42.3594 11.1835 42.3636 11.1878C42.4783 11.317 42.5547 11.4763 42.6694 11.6054C42.8138 11.769 42.9964 11.8938 43.1323 12.0617C43.247 12.2038 43.3447 12.3975 43.3914 12.4879C43.4678 12.4879 43.5485 12.4879 43.625 12.4879C43.6335 12.4922 43.6377 12.4965 43.6377 12.5008Z" fill="#E0E0E0"/>
<path d="M42.0621 11.8335C42.0876 11.9239 42.0493 12.0186 42.0706 12.109C42.0833 12.1736 42.1343 12.221 42.1598 12.2769C42.2574 12.4749 42.3127 12.6385 42.3169 12.7461C42.3169 12.7763 42.3127 12.8193 42.2999 12.8494C42.2702 12.9226 42.1767 12.9183 42.1428 12.9872C42.1046 13.0604 42.13 13.1422 42.1215 13.2196C42.1173 13.2239 42.1088 13.2283 42.1045 13.2326C42.0536 13.2196 41.8922 13.0862 41.8497 13.0173C41.8285 12.9829 41.8327 12.9355 41.837 12.8882C41.8625 12.5696 41.7903 12.3673 41.7903 12.363C41.7733 12.3243 41.7605 12.3415 41.7351 12.3716C41.7011 12.4104 41.6246 12.5051 41.4633 12.1865C41.4038 12.066 41.4633 12.0359 41.4887 12.0186C41.5652 11.9799 41.6671 12.0359 41.7266 11.9412C41.6841 11.7991 41.5482 11.7087 41.51 11.5623C41.476 11.4375 41.5482 11.4289 41.5864 11.4246C41.7266 11.4289 42.0111 11.657 42.0621 11.8335Z" fill="#E0E0E0"/>
<path d="M37.624 6.73251C37.6877 6.82722 37.8321 7.07689 37.8109 7.11994C37.7556 7.12424 37.7556 7.12424 37.7556 7.34808C37.7556 7.48583 37.7259 7.70968 37.4923 7.68815C37.2842 7.66663 37.1356 7.48153 36.919 7.48153C36.7703 7.48153 36.7534 7.48153 36.7194 7.46861C36.6557 7.44279 36.6812 7.38683 36.6854 7.37391C36.7279 7.29212 36.7958 7.15868 36.2819 6.96927C36.5537 6.96066 36.3541 6.72391 36.3244 6.69808C36.2565 6.63781 36.18 6.64212 36.1121 6.65503C35.9974 6.67225 35.9464 6.65934 35.9082 6.60768C35.8955 6.59476 35.8105 6.43119 35.9252 6.41397C35.9507 6.40966 36.0059 6.40966 36.1078 6.45271C35.9592 6.32787 35.7298 6.13847 35.887 6.11264C35.8912 6.11264 35.8997 6.11264 35.904 6.11264C36.0908 6.22887 36.1375 6.2633 36.2522 6.43549C36.3202 6.5388 36.3881 6.57324 36.4348 6.58616C36.4476 6.59046 36.4773 6.59907 36.49 6.58616C36.4943 6.58185 36.4985 6.57324 36.507 6.56463C36.5368 6.52159 36.524 6.46562 36.558 6.42258C36.575 6.40105 36.575 6.40105 36.6812 6.33648C36.8298 6.25039 37.1611 6.04377 37.624 6.73251Z" fill="#E0E0E0"/>
<path d="M50.0591 36.2368C49.4943 37.6358 48.509 39.4438 48.3434 39.5299C48.3264 39.4696 48.8955 38.359 48.8997 38.3504C49.1885 37.8554 49.3796 37.3173 49.6344 36.805C49.6939 36.6888 49.7236 36.663 49.7703 36.6328C49.8001 36.6113 49.8723 36.5597 50.0804 36.0861C50.1568 35.9097 50.1993 35.7246 50.3055 35.561C50.2842 35.6772 50.0634 36.2282 50.0591 36.2368Z" fill="#E0E0E0"/>
<path d="M39.3822 3.75366C38.346 3.12518 37.607 2.76358 36.953 2.44504C37.7854 2.83676 38.5965 3.27584 39.3822 3.75366Z" fill="#E0E0E0"/>
<path d="M21.8974 25.4364L21.8932 25.4407C21.8974 25.4364 21.8974 25.4364 21.8974 25.4364ZM13.9258 20.6065C13.9216 20.6065 13.9216 20.6065 13.9258 20.6065V20.6065ZM14.1382 20.529H14.1339C14.1339 20.5333 14.1382 20.529 14.1382 20.529ZM14.1679 20.5247H14.1637C14.1679 20.5247 14.1679 20.5247 14.1679 20.5247ZM14.1679 20.5247H14.1722C14.1722 20.5247 14.1722 20.5247 14.1679 20.5247ZM14.1722 20.5247H14.1764C14.1764 20.5247 14.1764 20.5247 14.1722 20.5247ZM14.1764 20.5247H14.1807C14.1807 20.5247 14.1807 20.5247 14.1764 20.5247ZM37.6495 34.2868C37.6962 34.1103 37.7387 33.8219 37.6665 33.4388C36.2904 33.1848 35.2924 32.0828 33.9588 31.7341C32.9566 29.9649 29.5377 27.141 25.8004 28.3033C25.6687 28.9275 25.6178 28.9447 25.346 29.0308C24.7896 28.4755 24.7429 28.5056 23.9147 28.9705C22.8827 28.6433 23.6557 27.4294 23.2734 26.7321C22.7766 26.6718 22.2712 26.7837 21.7785 26.646C21.838 25.9874 22.1183 25.1436 22.2329 24.8122C21.1797 23.9469 20.3728 26.4437 19.4299 25.4579C18.8608 24.8595 18.6145 22.3886 19.6508 22.1174C19.7017 21.9754 19.8122 21.8032 19.9056 21.687C21.3666 21.8118 21.3666 21.8118 21.4218 21.7774C21.4303 21.7042 21.4388 21.6052 21.4472 21.5277C21.5152 21.4847 21.6086 21.4244 21.6808 21.3813C22.2839 21.5578 22.9464 21.2952 23.524 21.6396C23.8595 23.3271 23.8595 23.3271 24.3055 23.383C24.1143 21.7386 24.1143 21.7386 26.3992 17.6664L28.4505 15.9919C28.4505 15.923 28.4505 15.8326 28.4505 15.7637C28.4548 15.768 28.4548 15.7766 28.459 15.7809L28.4717 15.7766C28.5524 15.7336 28.6629 15.6776 28.7436 15.6389C28.82 15.8584 28.769 16.1081 28.888 16.319C29.8308 16.022 30.0644 15.867 30.3744 15.4925C30.3659 15.4151 30.3532 15.316 30.3447 15.2386C30.2767 15.2256 30.1918 15.2127 30.1238 15.1998C30.0389 15.3419 29.8605 15.4925 29.7076 15.5528C29.4528 15.4151 29.2022 15.2687 28.9432 15.1395C28.9474 15.0621 28.9559 14.9588 28.9602 14.8813C28.854 14.7607 28.6799 14.623 28.5355 14.5541C28.7138 14.4938 28.9474 14.3905 29.1003 14.2829C29.0833 14.214 29.0578 14.1236 29.0408 14.0548C28.6714 13.9558 28.4505 13.8998 27.4907 14.8081C28.1702 13.8395 28.5227 13.5899 28.5227 13.5899L30.9945 13.2455C30.8501 13.7018 30.6589 14.3131 30.5145 14.7737C32.2983 14.666 32.2983 14.666 31.9882 14.0074C31.933 13.9988 31.933 13.9988 31.2535 14.0376C31.2705 12.475 31.2705 12.475 31.2578 12.4534C31.2408 12.4233 28.6714 9.28518 28.4505 9.22922C28.2594 9.9438 28.2594 9.9438 27.9196 9.98254C27.8177 9.88353 27.6648 9.77161 27.5374 9.71134C27.4737 9.43154 27.3888 9.06134 27.3208 8.78153C26.6795 8.61795 26.1444 8.17027 25.4776 8.07126C25.4139 8.12292 25.329 8.19179 25.2653 8.24775C25.3715 9.41002 25.3715 9.41002 25.0784 9.78022C25.5711 10.6713 25.5711 10.6713 25.5668 11.1835C24.7556 11.6054 25.2271 12.5008 24.8746 13.0948C24.7939 13.1077 24.6877 13.1207 24.607 13.1293C23.9742 12.6299 23.9742 12.6299 24.0719 11.4849C23.3796 11.515 23.1715 11.5236 21.6086 10.4647C21.6511 10.314 21.7063 10.1117 21.7403 9.95671C21.6851 9.91366 21.6129 9.8534 21.5619 9.80605C21.4133 9.82757 21.2052 9.74578 21.0778 9.65969C21.0947 9.37127 21.0947 9.37127 23.3159 7.02092C23.3117 6.95204 23.3032 6.85734 23.2947 6.78846C23.2267 6.78416 23.1333 6.77555 23.0653 6.77124C23.0314 6.70667 22.9889 6.62489 22.9549 6.56031C23.5325 6.61628 24.985 5.96627 24.641 5.26891C24.6919 5.12255 24.7387 4.91593 24.7641 4.76096C24.6622 4.64904 24.4966 4.5242 24.3607 4.46393C24.297 4.48976 24.212 4.5285 24.1483 4.55433C24.0974 5.19143 23.5453 5.72521 23.541 5.72951C23.4943 5.67786 23.4263 5.60898 23.3796 5.56163C23.524 5.18712 23.5113 5.12686 23.4433 4.78248C23.3626 4.90732 23.2182 5.04937 23.0993 5.13546C23.1418 5.00632 23.1588 4.81692 23.1375 4.67917C23.0781 4.64043 22.9974 4.58877 22.9379 4.55003C23.0186 3.76657 23.0186 3.76657 23.0101 3.47386C22.9889 3.46525 22.9634 3.45664 22.9464 3.44803C22.6024 3.76227 22.4538 4.01625 22.4028 4.38645C22.6704 4.71791 22.7171 4.85997 22.2244 5.2603C22.1607 5.02785 22.2117 4.77818 22.1055 4.55433C21.7148 4.60599 21.6044 4.78679 21.6553 5.29474C20.8442 5.807 20.5554 5.31196 20.4492 5.12686C18.7929 5.45832 18.7929 5.45832 18.6655 5.4454C18.7589 5.33778 18.8778 5.19573 18.967 5.08381C17.9987 4.48115 17.9987 4.48115 17.4423 4.84275C17.4636 4.70069 17.5018 4.50698 17.5358 4.36923C16.7798 4.23148 16.3084 4.94606 15.6246 5.03215C15.6501 4.88579 15.6841 4.69208 15.7011 4.55003C15.5907 4.4295 15.4293 4.2487 14.9366 4.11095C14.9409 4.03777 14.9409 3.94307 14.9451 3.86989C13.068 3.72353 12.6687 5.75964 11.314 6.38382C11.3437 6.31495 11.3819 6.22455 11.4116 6.15567C10.7236 6.29773 10.4136 6.84442 10.3074 7.02522C10.3711 7.05535 10.4561 7.0984 10.524 7.12853C10.5835 7.0984 10.6684 7.05966 10.7279 7.02953C10.5537 8.26497 9.05881 8.25636 8.66384 9.28088C8.73179 9.26796 8.82098 9.25505 8.88468 9.24213C8.80399 9.37988 8.71056 9.57359 8.65959 9.72856C8.71905 9.7673 8.7955 9.81466 8.85496 9.84909C8.86345 9.93088 8.87194 10.0428 8.87619 10.1246C8.2986 10.7402 8.1627 10.8865 7.09671 11.6571C8.41752 11.1233 9.22444 9.91366 10.3414 9.10869C10.0526 9.49611 10.0526 9.49611 9.93794 9.78883C10.8638 9.27657 10.97 9.06134 11.1059 8.79014C11.968 9.73717 11.968 9.73717 12.5711 13.3574C13.2591 13.5813 13.2591 13.5985 13.429 14.4207C13.2803 14.4852 13.068 14.5498 12.9023 14.5627C12.0614 19.1386 12.0614 19.1386 13.1741 20.0512C13.8706 20.6237 14.1722 22.3112 14.1722 22.3241C14.1042 22.3542 14.015 22.3929 13.9471 22.4188C14.5544 22.8751 14.7328 23.6973 15.3656 24.1363C15.3911 24.0718 15.425 23.9814 15.4505 23.9125C14.7625 22.9353 14.2656 21.2909 14.2614 21.278C14.3081 21.2264 14.376 21.1618 14.4227 21.1145C14.8559 21.6698 16.6354 25.2426 16.6354 25.2556C17.4891 26.0089 17.7142 26.0821 20.4917 27.0033H20.4874L20.4789 27.0076C21.0947 27.5586 21.8847 27.8168 22.5684 28.2516C22.5727 28.3248 22.5812 28.4238 22.5897 28.497C23.0186 28.7423 24.1398 29.5043 24.1483 29.5086C24.7047 29.091 24.7047 29.091 24.7981 29.048C26.0934 30.1457 23.4348 31.295 24.28 32.6424C23.8213 34.4202 25.7367 36.2454 25.8174 36.3229C27.5629 37.9587 27.5629 37.9587 26.9768 40.718C26.7008 42.0223 26.5818 43.3611 26.1869 44.6439C26.3228 44.5707 26.4714 44.3985 26.5351 44.2564C26.6031 45.3929 25.9066 46.4647 26.2463 47.627C26.2761 47.7303 26.5776 48.63 27.737 48.3459C26.8791 47.4893 26.9471 47.4118 28.0513 46.1591C28.0428 46.0902 28.0301 45.9955 28.0216 45.9267C27.8984 45.8621 27.7752 45.6985 27.7285 45.5694C27.7965 45.4445 27.9579 45.3154 28.0895 45.268C28.1405 45.1432 28.2042 44.9753 28.2552 44.8462C28.3995 44.8203 28.5949 44.7343 28.6968 44.6223C28.5907 44.5362 28.4633 44.3942 28.3826 44.2823C28.4165 44.222 28.4633 44.1445 28.4972 44.0842C28.6204 44.1488 28.8158 44.1876 28.9517 44.1703C29.3339 43.4428 30.4339 43.5548 30.6759 42.6637C30.6122 42.6422 30.5273 42.6077 30.4593 42.5862C30.4593 42.513 30.4551 42.4183 30.4551 42.3452C30.8246 42.1773 31.2578 42.1988 31.5848 41.9276C31.674 41.8544 31.7844 41.7425 31.8693 41.665C32.6975 40.873 32.6975 40.873 33.2284 39.6117C33.6148 38.6948 34.7191 39.0348 35.2712 38.415L37.6495 34.2868Z" fill="#FFAA1A"/>
<path d="M27.754 0.142036C28.7605 0.318528 30.4636 0.955621 30.7524 1.11059C30.7354 1.11489 30.7141 1.1235 30.6972 1.12781C30.6929 1.14503 30.6887 1.16655 30.6887 1.18377C30.7141 1.2096 30.7141 1.2096 32.3195 2.09636C32.655 2.28146 32.8504 2.51392 32.9565 2.67319C32.9481 2.69041 32.9311 2.71193 32.9226 2.72485C33.445 3.34042 34.2561 3.67188 34.6129 4.45103C34.6171 4.45963 34.7573 5.31196 34.0905 5.26461C33.8229 5.24739 33.8229 5.24739 33.772 5.26461C33.9418 5.85866 33.9418 5.85866 33.8229 6.22886C33.7168 6.56032 33.2538 6.59476 33.2241 6.98648C33.2071 7.23616 33.4492 7.37391 33.4747 7.60205C33.4917 7.74411 33.3048 7.80007 33.326 7.94643C33.3388 8.04113 33.3812 8.15736 33.4067 8.24776C33.5341 8.6567 33.6021 8.88485 33.5724 9.06995C33.5172 9.3928 33.2836 9.27227 33.1137 9.18187C32.9268 9.08286 32.9353 8.73849 32.6465 8.77723C32.3068 8.82028 32.2558 8.82889 32.1666 8.71697C32.1496 8.69544 30.5655 6.71098 30.2894 5.7123C30.162 5.2517 30.1408 5.14838 30.3447 5.08381C30.5613 5.01494 30.4084 4.62321 30.4084 4.61891C30.2088 4.21427 29.6991 4.28745 29.4401 3.9732C29.7119 3.88711 29.8775 4.21857 30.1451 4.1497C30.1281 4.11526 30.0898 4.03347 29.4103 3.36624C29.3976 3.37916 29.3848 3.39638 29.3721 3.40929C29.4018 3.65896 29.4018 3.65896 29.3891 3.71062C29.3296 3.6934 29.13 3.61592 29.0918 3.2328C28.9899 2.20828 27.3675 1.23543 27.0023 1.47218C27.0023 1.49371 26.998 1.51953 26.998 1.54106C26.6753 1.41622 26.6328 1.30861 26.6031 1.22682C26.395 1.15364 26.3313 1.1235 26.344 1.01158C26.4035 0.968535 26.4035 0.968535 26.5351 0.96423C26.4332 0.822176 26.1869 0.839395 26.1656 0.611246C26.1571 0.525153 26.2081 0.361575 26.4714 0.340051C26.4544 0.228129 26.4077 0.185082 26.361 0.142036C26.8367 0.124817 27.2953 0.124817 27.6648 0.124817C27.6903 0.133426 27.7285 0.137731 27.754 0.142036Z" fill="#E0E0E0"/>
<path opacity="0.3" d="M26 46.7231C15.7903 46.7231 6.78667 42.1127 1.4737 35.1047C5.03267 45.3585 14.6691 52.7066 26 52.7066C37.3309 52.7066 46.9673 45.3542 50.5263 35.1047C45.2133 42.117 36.2097 46.7231 26 46.7231Z" fill="#424242"/>
<path opacity="0.2" d="M26 40.7395C16.1173 40.7395 7.19013 37.7004 0.785686 32.806C0.9768 33.5808 1.20614 34.3384 1.4652 35.0831C6.77817 42.1041 15.7818 46.723 26 46.723C36.2182 46.723 45.2218 42.1041 50.5348 35.0831C50.7938 34.3384 51.0232 33.5808 51.2143 32.806C44.8099 37.7004 35.8827 40.7395 26 40.7395Z" fill="#424242"/>
<path opacity="0.4" d="M26 7.78717C31.7301 7.78717 36.3754 6.3051 36.3754 4.47687C36.3754 2.64864 31.7301 1.16656 26 1.16656C20.2698 1.16656 15.6246 2.64864 15.6246 4.47687C15.6246 6.3051 20.2698 7.78717 26 7.78717Z" fill="white"/>
</svg>
