<svg width="53" height="59" viewBox="0 0 53 59" fill="none" xmlns="http://www.w3.org/2000/svg">
<g clip-path="url(#clip0)">
<path opacity="0.2" d="M26.0631 59C36.3168 59 44.6291 57.2481 44.6291 55.087C44.6291 52.926 36.3168 51.1741 26.0631 51.1741C15.8094 51.1741 7.49707 52.926 7.49707 55.087C7.49707 57.2481 15.8094 59 26.0631 59Z" fill="#212121"/>
<path d="M26.0631 52.7066C40.4573 52.7066 52.1262 40.9078 52.1262 26.3533C52.1262 11.7988 40.4573 0 26.0631 0C11.6688 0 0 11.7988 0 26.3533C0 40.9078 11.6688 52.7066 26.0631 52.7066Z" fill="#1E88E5"/>
<path d="M27.9065 20.585C27.8213 20.9251 27.7404 21.1704 27.7021 21.3039C27.7404 21.3642 27.7873 21.4459 27.8256 21.5062C27.9193 21.6052 27.8171 21.6569 27.5191 21.6655C26.2334 21.6999 25.6671 21.9969 25.4543 22.1089C25.9779 21.4933 26.0716 21.433 26.1099 21.4072C26.0162 21.2522 25.7949 21.1877 25.8034 20.9595C25.8034 20.9509 25.8034 20.9509 26.0503 20.8863C26.2802 20.8261 26.046 20.5377 26.1482 20.387C26.2291 20.2622 26.4207 20.3612 26.4888 20.2105C26.5143 20.1545 26.4122 19.8016 26.4122 19.7972C26.3909 19.7327 26.3313 19.5605 25.8885 19.638C25.846 19.5648 25.8374 19.5433 25.8119 19.4658C25.7438 19.2549 25.8885 19.0439 25.8204 18.833C25.7991 18.7641 25.7906 18.7426 25.6373 18.7039C25.4713 18.6651 25.4458 18.6178 25.4798 18.3896C25.5863 17.6449 25.6757 17.5201 26.2121 17.3909C26.3057 17.5502 26.2674 17.7482 26.0929 17.9936C26.0077 18.1141 26.012 18.127 26.0333 18.1658C26.2717 18.2174 26.459 17.9419 26.7059 18.0539C26.7272 18.1529 26.7102 18.2002 26.5484 18.5446C26.4037 18.8545 26.2632 19.1429 26.7059 19.0052C26.7996 19.3797 26.872 19.5691 27.0508 19.7068C27.319 19.9135 27.4339 20.1588 27.4595 20.5764C27.6127 20.5764 27.766 20.5764 27.9193 20.5764C27.9107 20.5764 27.9065 20.5807 27.9065 20.585Z" fill="#E0E0E0"/>
<path d="M25.4883 19.7929C25.4585 19.8919 25.3478 20.0168 25.2584 20.1201C25.3393 20.6409 25.1861 20.8648 25.1775 20.8777C25.1477 20.9164 25.1094 20.9681 25.0711 20.9982C24.9562 21.0886 24.8029 21.0757 24.6837 21.1575C24.5858 21.2264 24.5773 21.3641 24.4751 21.4287C24.4538 21.4416 24.4283 21.4588 24.3474 21.3986C24.0962 21.2135 24.1388 21.1575 24.2282 21.037C24.5006 20.6668 24.5475 20.4257 24.5432 20.4042C24.539 20.3999 24.5304 20.3956 24.5262 20.3913C24.424 20.4128 24.3303 20.5592 24.2154 20.4645C24.1601 20.4214 24.0621 20.189 24.1515 20.0856C24.1643 20.0684 24.1899 20.0512 24.2069 20.0426C24.3729 19.9565 24.5688 20.0254 24.7348 19.9436C24.7944 19.9135 24.7944 19.9135 24.7476 19.7757C24.7092 19.6638 24.5943 19.328 24.9732 19.2979C25.2371 19.3108 25.5522 19.5734 25.4883 19.7929Z" fill="#E0E0E0"/>
<path d="M23.1426 13.4392C23.1085 13.6459 23.0149 13.8826 22.968 13.93C22.9169 13.9816 22.8361 13.9515 22.7807 13.9945C22.6104 14.128 22.4955 14.3174 22.3209 14.4422C22.2102 14.5197 22.1208 14.58 21.9676 14.6359C21.8867 14.6661 21.7377 14.6833 21.6696 14.6704C21.4184 14.623 21.2268 14.4035 20.9543 14.4078C20.7585 14.4121 20.7287 14.4121 20.6691 14.3949C20.6606 14.3906 20.6521 14.382 20.6436 14.3777C20.6436 14.3647 20.6393 14.326 20.7202 14.2743C20.9373 14.1323 20.933 14.1065 20.9203 14.0462C20.9032 13.9472 20.767 13.8396 20.5414 13.7449C20.9756 13.7363 20.9841 13.4306 20.9245 13.3661C20.8692 13.3058 20.7244 13.323 20.6436 13.3316C20.5754 13.3402 20.4137 13.3574 20.3839 13.3144C20.337 13.2455 20.4562 13.0088 20.6819 13.0088C20.7202 13.0088 20.8011 13.0174 20.8947 13.0604C20.8053 12.8882 20.6691 12.6256 21.0054 12.6084C21.1587 12.7634 21.1927 12.8064 21.1587 13.0389C21.1417 13.1508 21.1885 13.2197 21.2907 13.2455C21.3119 13.2498 21.3417 13.2455 21.363 13.2369C21.4822 13.1853 21.5716 13.0819 21.6866 13.026C21.8186 12.9614 21.9591 12.9399 22.091 12.8839C22.1038 12.8839 23.3044 12.4233 23.1426 13.4392Z" fill="#E0E0E0"/>
<path d="M46.0936 37.8985C45.9191 38.2902 45.7786 38.217 45.7573 38.1654C45.702 38.0147 45.9872 37.3819 46.1745 37.2355C46.2597 37.5326 46.1447 37.7908 46.0936 37.8985Z" fill="#E0E0E0"/>
<path d="M46.928 41.17C46.762 41.4197 46.7577 41.4154 46.6768 41.3637C46.6811 41.1657 47.226 39.8743 47.2303 39.8614C47.3026 39.6978 47.5283 39.1941 47.5581 38.3676C47.6986 38.4623 47.7284 39.0306 47.6177 39.517C47.6007 39.5859 47.5751 39.672 47.5581 39.7408C47.507 39.9001 47.4133 40.0379 47.3622 40.1928C47.3112 40.3435 47.3154 40.5028 47.2558 40.6491C47.2558 40.6491 47.0642 40.9634 46.928 41.17Z" fill="#E0E0E0"/>
<path d="M46.8174 42.0439C46.8174 42.0439 46.7024 42.1515 46.6556 42.13C46.6471 42.0826 46.6684 42.0352 46.6471 41.9879C46.6428 41.9793 46.6428 41.9793 46.5619 41.9405C46.5151 41.7813 46.6854 41.4541 46.8301 41.4283C46.8429 41.4283 46.8599 41.4326 46.8387 41.4842C46.745 41.7038 46.8259 41.6737 46.8642 41.6607C46.9068 41.6478 46.9366 41.6349 46.9153 41.7167C46.894 41.7942 46.8642 41.8631 46.8429 41.9405C46.8429 41.9405 46.8174 42.0223 46.8216 42.0396C46.8216 42.0396 46.8216 42.0396 46.8174 42.0439Z" fill="#E0E0E0"/>
<path d="M48.516 39.5902C48.4692 39.6677 48.4479 39.6892 48.4351 39.7021C48.4309 39.6978 48.4309 39.6935 48.4266 39.6892C48.4266 39.6806 48.4309 39.672 48.4309 39.6677C48.0435 40.3263 47.5624 40.9289 47.5624 40.9332C47.5496 40.9117 47.5454 40.9074 47.5794 40.8299C47.6135 40.7481 47.6135 40.7481 47.5964 40.6061C47.5922 40.6061 47.5879 40.6018 47.5837 40.5975C47.5581 40.6104 47.5581 40.6104 47.5113 40.6405C47.771 40.2359 47.8263 40.0766 47.8476 40.0077C47.9413 39.7236 48.201 39.3534 48.2648 39.3362C48.2776 39.3491 48.2776 39.3491 48.2776 39.4008C48.2819 39.4008 48.2861 39.4008 48.2946 39.4008C48.3159 39.3749 48.35 39.3405 48.5032 39.1167C48.5245 39.0865 48.5501 39.0435 48.5714 39.0133C48.6139 38.9531 48.6352 38.9445 48.6352 38.9445C48.7715 38.8799 48.78 38.7292 48.8523 38.6216C48.8694 38.6001 49.21 38.1007 49.21 38.1007C49.2142 38.0921 49.2227 38.0878 49.2312 38.0792C49.244 38.1309 49.1333 38.4236 49.1333 38.4279C49.0822 38.5312 49.0226 38.6259 48.9758 38.7292C48.9715 38.7378 48.963 38.7421 48.9545 38.7508C48.8779 38.8282 48.8098 38.9143 48.6395 39.2888C48.5926 39.3922 48.5714 39.4998 48.516 39.5902Z" fill="#E0E0E0"/>
<path d="M48.6139 39.5816C48.4649 39.8312 48.4436 39.8484 48.4351 39.8528C48.4351 39.8441 48.4309 39.8355 48.4309 39.8312C48.384 39.8484 48.1754 40.2057 48.1541 40.2445C48.218 40.1799 48.2521 40.0938 48.3244 40.0379C48.3159 40.0938 47.49 41.3422 47.4815 41.3551C47.5709 41.1226 47.754 40.9461 47.8647 40.7266C47.8519 40.7352 47.8519 40.7395 47.7412 40.8988C47.4219 41.3852 47.4134 41.3895 47.3921 41.4067L47.805 40.7352C48.5288 39.6074 48.5416 39.5988 48.5671 39.5729C48.5671 39.5988 48.5671 39.5988 48.5416 39.659C48.5501 39.6547 48.5501 39.6547 48.7161 39.3965C48.7119 39.4051 48.7033 39.418 48.6991 39.4266C48.6735 39.4782 48.6437 39.5299 48.6139 39.5816Z" fill="#E0E0E0"/>
<path d="M46.8769 42.1127C46.8684 42.1257 46.8599 42.1343 46.8471 42.1472L46.8429 42.1515C46.8344 42.1601 46.8216 42.1601 46.8131 42.1687C46.7918 42.1859 46.7705 42.2031 46.7492 42.2204C46.7365 42.2333 46.7152 42.2462 46.7067 42.2462L46.7024 42.2419C46.7109 42.2074 46.7535 42.1515 46.7535 42.1515C46.7535 42.1515 46.8599 42.0309 46.8855 42.0223C46.8982 42.0266 46.8855 42.0439 46.8982 42.0439C46.9025 42.0439 46.9067 42.0396 46.911 42.0396C46.9153 42.0353 46.9153 42.0309 46.9238 42.0353H46.928C46.9238 42.0525 46.8855 42.1041 46.8769 42.1127Z" fill="#E0E0E0"/>
<path d="M46.5959 42.5303C46.5576 42.5776 46.5236 42.6121 46.5236 42.6121C46.5321 42.5905 46.5491 42.5776 46.5619 42.5604C46.6172 42.4829 46.6342 42.4614 46.6385 42.4485C46.63 42.427 46.7322 42.3021 46.7364 42.2978C46.7364 42.3021 46.7322 42.3064 46.7322 42.3107C46.7407 42.3064 46.7492 42.2978 46.7577 42.2935C46.7492 42.3107 46.6257 42.4915 46.5959 42.5303Z" fill="#E0E0E0"/>
<path d="M46.8003 42.3237C46.6896 42.4657 46.5747 42.6035 46.4597 42.7412C46.7875 42.3366 46.7875 42.3366 46.9408 42.1342C46.894 42.1988 46.8471 42.2634 46.8003 42.3237Z" fill="#E0E0E0"/>
<path d="M46.9749 42.0869C46.8727 42.1902 46.8472 42.216 46.8386 42.216C46.8344 42.1988 46.9238 42.0524 46.9451 42.0395C46.9451 42.0395 46.9493 42.0395 46.9536 42.0438C46.9536 42.0524 46.9536 42.061 46.9281 42.1084C46.9791 42.0567 46.9919 42.0438 47.0004 42.0395C47.0004 42.0438 46.9919 42.0697 46.9749 42.0869Z" fill="#E0E0E0"/>
<path d="M51.3684 32.5434C51.3684 32.552 51.1215 33.4345 51.1087 33.4603L51.1044 33.456C51.1385 33.2236 51.3726 32.3626 51.411 32.3196C51.4152 32.354 51.3726 32.5262 51.3684 32.5434Z" fill="#E0E0E0"/>
<path d="M50.551 34.05C50.5467 34.0586 50.2828 34.8937 50.2146 34.7259C50.1806 34.6441 50.2998 34.2954 50.4573 34.1232C50.5212 34.1533 50.5212 34.0457 50.5595 34.0156C50.5595 34.0285 50.5552 34.0414 50.551 34.05Z" fill="#E0E0E0"/>
<path d="M38.0176 43.6021C38.0005 43.628 36.2806 46.2969 35.6122 46.1677C35.5994 46.1032 35.5654 45.9051 35.8378 45.3412C35.9528 45.1045 36.221 45.0098 36.3402 44.773C36.4551 44.5406 36.4636 44.2651 36.6339 44.0584C36.7106 43.9637 36.8511 43.9465 37.0128 43.9207C37.1789 43.8949 37.4002 43.8346 37.6685 43.5892C37.8302 43.4386 37.9111 43.2147 38.1027 43.0899C38.1368 43.0684 38.1453 43.0641 38.1708 43.0598C38.2985 43.0899 38.0857 43.4816 38.0176 43.6021Z" fill="#E0E0E0"/>
<path d="M38.0558 5.25602C38.3709 5.62622 38.1197 5.91894 38.0644 5.9749C37.8515 6.19444 38.5369 8.23917 38.6135 8.41135C38.7328 8.68685 39.1159 9.31964 39.6949 9.72428C39.167 9.67263 39.167 9.67263 39.0904 9.62528C39.0733 9.61236 39.052 9.59514 39.035 9.58223C38.8647 9.44878 38.7881 9.22063 38.5965 9.10441C38.4858 9.03553 38.3368 9.04845 38.2346 8.95374C38.1793 8.90209 38.0048 8.73421 38.0133 8.62659C38.2219 8.59215 38.0984 8.33387 38.0984 8.32956C38.0558 8.29513 37.9962 8.29513 37.9664 8.23917C37.9579 8.22195 37.9494 8.20042 37.9409 8.18751C37.8728 8.03685 37.9409 7.86896 37.877 7.7183C37.8132 7.56333 37.6046 7.5332 37.5663 7.3524C37.6173 7.30075 37.7578 7.31796 37.7365 7.21896C37.728 7.17591 37.7025 7.11995 37.6812 7.08121C37.6259 6.96498 37.6259 6.82723 37.5663 6.711C37.5194 6.6163 37.413 6.56464 37.3747 6.46564C37.3704 6.45703 37.2214 5.77258 37.2257 5.76828C37.2725 5.74675 37.3321 5.77689 37.3662 5.72093C37.3108 5.51 37.3108 5.51 37.3364 5.47556C37.4173 5.46695 37.4811 5.55304 37.5663 5.5143C37.6046 5.49708 37.6557 5.45404 37.6897 5.3292C37.4215 5.058 37.43 4.98913 37.4343 4.94608C37.4513 4.94178 37.4726 4.93317 37.4854 4.92886C37.6344 4.94608 37.8089 4.96761 38.0558 5.25602Z" fill="#E0E0E0"/>
<path d="M49.4568 37.9932C49.4441 38.019 49.4313 38.0448 49.4185 38.0706C49.3759 38.161 49.3291 38.2514 49.2823 38.3418C49.3036 38.2945 49.3461 38.1998 49.4952 37.8985C49.5377 37.8124 49.5377 37.8037 49.5377 37.7994C49.5207 37.8167 49.5207 37.8167 49.3036 38.2342C49.6186 37.5885 49.6356 37.5713 49.6484 37.5584C49.6484 37.5584 49.6527 37.5584 49.6527 37.5627C49.6527 37.5713 49.6484 37.5799 49.6484 37.5842C49.6569 37.5756 49.6569 37.5713 49.708 37.4723C49.6229 37.6445 49.542 37.821 49.4568 37.9932Z" fill="#E0E0E0"/>
<path d="M50.5978 35.1908C50.5936 35.1994 50.27 36.069 50.2317 36.1292C50.2359 36.0474 50.7681 34.5838 50.7724 34.5666H50.7766C50.7766 34.5623 50.7383 34.8034 50.5978 35.1908Z" fill="#E0E0E0"/>
<path d="M49.9124 37.0074C49.8783 37.0806 49.7549 37.3302 49.6697 37.4637C49.6697 37.4551 50.0103 36.6802 50.0146 36.6759C50.0231 36.6931 50.0188 36.7017 49.9422 36.8955C49.9635 36.8653 50.0784 36.5984 50.104 36.5425C50.0912 36.5597 50.0827 36.5769 50.0742 36.5984C50.0742 36.5941 50.2658 36.0603 50.287 36.0388C50.287 36.069 50.287 36.0689 50.1423 36.4607C50.0699 36.6458 49.9933 36.8266 49.9124 37.0074Z" fill="#E0E0E0"/>
<path d="M50.121 36.3961C50.0869 36.4779 50.0443 36.5769 50.0358 36.5941C50.0614 36.5124 50.0997 36.4306 50.1295 36.3488C50.1465 36.2928 50.1593 36.2325 50.1806 36.1809C50.1806 36.1809 50.1933 36.1551 50.2019 36.1508C50.2104 36.1637 50.1848 36.2498 50.121 36.3961Z" fill="#E0E0E0"/>
<path d="M49.8741 36.8782C49.6442 37.4034 49.4654 37.6402 49.4611 37.6402C49.4611 37.6402 49.4611 37.6359 49.4568 37.6359C49.4654 37.5971 49.4994 37.5368 49.5079 37.5153C49.5761 37.3862 49.6612 37.2743 49.7251 37.1451C49.7974 37.0117 49.84 36.861 49.9251 36.7319C49.9294 36.7534 49.8868 36.8524 49.8741 36.8782Z" fill="#E0E0E0"/>
<path d="M5.06616 34.4762C5.06616 34.4805 5.06616 34.4762 5.06616 34.4762V34.4762ZM5.07042 34.4719C5.07042 34.4762 5.06616 34.4762 5.07042 34.4719C5.06616 34.4762 5.07042 34.4762 5.07042 34.4719ZM5.07042 34.4676C5.07042 34.4719 5.07042 34.4719 5.07042 34.4676C5.07042 34.4719 5.07042 34.4719 5.07042 34.4676ZM5.07042 34.459C5.07042 34.459 5.07042 34.4633 5.07042 34.459C5.07042 34.4633 5.07042 34.459 5.07042 34.459ZM5.07042 34.4547C5.07042 34.4547 5.07042 34.459 5.07042 34.4547C5.07042 34.459 5.07042 34.4547 5.07042 34.4547ZM5.07042 34.4504C5.07042 34.4547 5.07042 34.4547 5.07042 34.4504C5.07042 34.4547 5.07042 34.4547 5.07042 34.4504ZM5.07468 34.4461C5.07468 34.4504 5.07468 34.4504 5.07468 34.4461C5.07468 34.4504 5.07468 34.4504 5.07468 34.4461ZM5.07468 34.4375C5.07468 34.4375 5.07468 34.4418 5.07468 34.4375C5.07468 34.4418 5.07468 34.4375 5.07468 34.4375ZM5.07468 34.4332C5.07468 34.4332 5.07468 34.4375 5.07468 34.4332C5.07468 34.4375 5.07468 34.4332 5.07468 34.4332ZM5.07468 34.4289C5.07468 34.4332 5.07468 34.4332 5.07468 34.4289C5.07468 34.4332 5.07468 34.4332 5.07468 34.4289ZM5.07468 34.4246C5.07468 34.4289 5.07468 34.4289 5.07468 34.4246C5.07468 34.4289 5.07468 34.4289 5.07468 34.4246ZM5.07894 34.4246C5.07894 34.4246 5.07468 34.4246 5.07894 34.4246C5.07468 34.4246 5.07894 34.4246 5.07894 34.4246ZM5.07894 34.4116C5.07894 34.4116 5.07894 34.4159 5.07894 34.4116C5.07894 34.4159 5.07894 34.4116 5.07894 34.4116ZM5.07894 34.4073C5.07894 34.4073 5.07894 34.4116 5.07894 34.4073C5.07894 34.4116 5.07894 34.4073 5.07894 34.4073ZM5.07894 34.403C5.07894 34.4073 5.07894 34.4073 5.07894 34.403C5.07894 34.4073 5.07894 34.4073 5.07894 34.403ZM5.07894 34.3987C5.07894 34.403 5.07894 34.403 5.07894 34.3987C5.07894 34.403 5.07894 34.403 5.07894 34.3987ZM5.07894 34.3944C5.07894 34.3987 5.07894 34.3987 5.07894 34.3944C5.07894 34.3987 5.07894 34.3987 5.07894 34.3944ZM5.08319 34.3944C5.07894 34.3944 5.07894 34.3944 5.08319 34.3944C5.07894 34.3944 5.07894 34.3944 5.08319 34.3944ZM5.08319 34.3815C5.08319 34.3815 5.08319 34.3858 5.08319 34.3815C5.08319 34.3858 5.08319 34.3815 5.08319 34.3815ZM5.08319 34.3772C5.08319 34.3772 5.08319 34.3815 5.08319 34.3772C5.08319 34.3815 5.08319 34.3772 5.08319 34.3772ZM5.08319 34.3729C5.08319 34.3729 5.08319 34.3772 5.08319 34.3729C5.08319 34.3772 5.08319 34.3729 5.08319 34.3729ZM5.08319 34.3686C5.08319 34.3729 5.08319 34.3729 5.08319 34.3686C5.08319 34.3729 5.08319 34.3729 5.08319 34.3686ZM5.08319 34.3643C5.08319 34.3686 5.08319 34.3686 5.08319 34.3643C5.08319 34.3686 5.08319 34.3686 5.08319 34.3643ZM0.894027 29.6808C0.88977 29.6808 0.894027 29.6808 0.894027 29.6808V29.6808ZM0.894027 29.6765C0.894027 29.6765 0.894027 29.6808 0.894027 29.6765C0.894027 29.6808 0.894027 29.6765 0.894027 29.6765ZM0.898285 29.6722C0.894027 29.6722 0.894027 29.6722 0.898285 29.6722C0.894027 29.6722 0.894027 29.6722 0.898285 29.6722ZM0.898285 29.6679C0.898285 29.6679 0.898285 29.6722 0.898285 29.6679C0.898285 29.6722 0.898285 29.6679 0.898285 29.6679ZM0.898285 29.6679C0.898285 29.6636 0.898285 29.6636 0.898285 29.6679C0.898285 29.6636 0.898285 29.6636 0.898285 29.6679ZM0.898285 29.6636C0.898285 29.6636 0.898285 29.6593 0.898285 29.6636C0.898285 29.6593 0.898285 29.6636 0.898285 29.6636ZM0.898285 29.6593C0.902542 29.6593 0.902542 29.6593 0.898285 29.6593C0.902542 29.6593 0.902542 29.6593 0.898285 29.6593ZM0.902542 29.6593C0.902542 29.655 0.902542 29.655 0.902542 29.6593C0.902542 29.655 0.902542 29.655 0.902542 29.6593ZM0.906799 29.642C0.906799 29.642 0.911057 29.642 0.906799 29.642C0.911057 29.642 0.906799 29.642 0.906799 29.642ZM0.911057 29.6334C0.911057 29.6334 0.915314 29.6334 0.911057 29.6334C0.915314 29.6334 0.911057 29.6334 0.911057 29.6334ZM0.915314 29.6334C0.915314 29.6334 0.915314 29.6291 0.915314 29.6334C0.915314 29.6291 0.915314 29.6334 0.915314 29.6334ZM0.919571 29.6205C0.919571 29.6205 0.923828 29.6205 0.919571 29.6205C0.923828 29.6205 0.919571 29.6205 0.919571 29.6205ZM0.923828 29.6162C0.928086 29.6162 0.928086 29.6119 0.923828 29.6162C0.928086 29.6119 0.928086 29.6162 0.923828 29.6162ZM0.928086 29.6119C0.928086 29.6119 0.932343 29.6119 0.928086 29.6119C0.932343 29.6119 0.928086 29.6119 0.928086 29.6119ZM0.932343 29.6076C0.932343 29.6076 0.9366 29.6076 0.932343 29.6076C0.9366 29.6076 0.932343 29.6076 0.932343 29.6076ZM0.9366 29.6076C0.9366 29.6076 0.9366 29.6033 0.9366 29.6076C0.9366 29.6033 0.9366 29.6076 0.9366 29.6076ZM0.940857 29.6033C0.940857 29.6033 0.9366 29.6033 0.940857 29.6033C0.9366 29.6033 0.940857 29.6033 0.940857 29.6033ZM0.940857 29.599C0.940857 29.599 0.940857 29.6033 0.940857 29.599C0.940857 29.6033 0.940857 29.599 0.940857 29.599ZM0.945115 29.599C0.945115 29.599 0.940857 29.599 0.945115 29.599C0.940857 29.599 0.945115 29.599 0.945115 29.599ZM0.945115 29.599C0.949372 29.599 0.949372 29.599 0.945115 29.599C0.949372 29.599 0.949372 29.599 0.945115 29.599ZM0.949372 29.599C0.949372 29.599 0.949372 29.5947 0.949372 29.599C0.949372 29.5947 0.949372 29.599 0.949372 29.599ZM18.2595 42.0137C18.2425 41.8717 18.1786 41.6306 17.987 41.3121C14.3513 40.7266 12.2823 37.0849 8.6806 36.4348C8.21655 36.9041 8.21655 36.9041 7.91429 36.8653C7.97815 37.3905 7.97815 37.3905 7.93132 37.6229C7.60776 37.2786 7.60776 37.2786 7.32678 37.1925C7.24164 37.2958 7.1054 37.412 6.99471 37.4895C6.47107 36.9428 6.49661 36.1464 6.11771 35.5352C5.89633 35.5093 5.6707 35.5266 5.44932 35.5136C5.07468 34.9669 5.24497 34.2954 5.05765 33.71C4.92567 33.6583 4.72132 33.6325 4.58509 33.6669C4.55529 33.9683 4.58509 34.2696 4.56806 34.5709C3.98907 34.713 2.86089 33.1332 3.34196 30.7828C3.58463 30.8388 3.81878 30.9378 4.06145 30.9937C4.08273 30.856 4.08273 30.6709 4.0657 30.5331C4.37648 30.546 4.67875 30.7182 5.00231 30.6149C5.68347 31.0325 5.33863 31.902 5.78565 32.4186C5.8197 32.2163 5.77713 31.9321 5.70901 31.7384C5.38546 30.7957 5.38546 30.7957 6.41998 27.395C6.99897 25.4923 7.96963 24.7347 8.15695 24.6056C8.16121 24.5367 8.16121 24.4463 8.16547 24.3774C8.16547 24.3817 8.16972 24.3903 8.16972 24.3989L8.1825 24.3946C8.25061 24.3473 8.33576 24.2827 8.40387 24.2354C8.42942 24.4162 8.42942 24.4162 8.37407 24.9155C8.90623 24.9327 9.69809 24.3817 9.75343 23.8178C9.68532 23.8092 9.59591 23.7963 9.5278 23.7834C9.46394 23.9082 9.34899 24.0589 9.2383 24.1493C9.02544 24.0287 8.85515 23.8436 8.64228 23.7317C8.63802 23.5768 8.66783 23.3658 8.71891 23.2152C8.64228 23.1764 8.54011 23.1248 8.46348 23.0817C8.57417 22.9526 8.73168 22.7847 8.8594 22.6728C8.85515 22.5953 8.85089 22.4877 8.84663 22.4102C8.78277 22.3844 8.70188 22.3499 8.63803 22.3241C8.2123 22.5264 8.03775 22.6082 7.4247 23.4605C8.14844 22.2122 8.51882 21.8721 8.51882 21.8721L10.6645 21.4588C10.4516 21.9926 10.1621 22.7072 9.94927 23.2453C11.5543 23.1205 11.5543 23.1205 11.4138 22.3585C11.3627 22.3456 11.3627 22.3456 10.7369 22.393C10.9157 21.4804 10.7752 20.5506 10.8774 19.638C10.3239 19.2807 10.3239 19.2807 9.91947 16.7065C9.85987 16.6893 9.77472 16.6634 9.71512 16.6462C9.22979 17.533 9.22979 17.533 8.97435 17.5502C8.87218 17.1197 8.95306 16.5171 8.97861 16.0737C8.67634 15.9015 8.67634 15.9015 8.50605 15.372C8.2719 15.3419 8.06329 15.2343 7.84191 15.174C6.07088 16.8701 7.10115 19.4486 5.94316 21.3383C5.44932 21.0929 5.47061 20.9939 5.7601 19.3797C5.61961 19.384 5.42803 19.3711 5.28754 19.3366C5.10448 18.7684 5.10448 18.7684 4.4744 18.1442C4.53826 17.9591 4.62341 17.7095 4.68727 17.5244C4.58935 17.4211 4.47015 17.2747 4.38926 17.1628C4.71281 15.6088 6.26672 14.9329 6.87977 13.5899C6.82442 13.5597 6.74779 13.5167 6.69245 13.4866C6.71373 13.4091 6.73928 13.3015 6.75631 13.224C6.81591 13.2498 6.89254 13.2886 6.95214 13.3144C8.95306 12.1134 9.25107 11.0846 9.14464 10.4302C9.06801 10.4302 8.96584 10.4302 8.8892 10.4302C7.68439 12.0531 7.68439 12.0531 7.49282 12.1564C7.67588 11.6872 7.98666 11.2826 8.15269 10.8047C7.91429 11.1104 7.88874 11.1319 7.67162 11.2955C8.16972 10.5336 8.8296 8.88486 8.8296 8.87625C8.03349 9.55639 7.8036 10.6412 7.10115 11.3859C7.11818 11.0587 7.33104 10.7961 7.39916 10.4862C6.82442 10.7746 6.77759 11.5452 6.19009 11.8207C6.12623 11.7862 6.04534 11.7432 5.98148 11.7087C5.99851 11.5409 6.04534 11.3213 6.09217 11.162C5.49615 11.7432 5.44932 11.7905 5.04914 11.7346C5.08745 11.6786 5.08745 11.6786 5.5515 10.4776C5.42378 10.5766 5.25774 10.7187 5.15557 10.8435C5.30031 10.5981 5.45783 10.3614 5.6111 10.1246C5.36417 10.3614 5.36417 10.3614 5.01508 10.8306C4.19342 11.9799 3.51226 13.0948 2.91198 14.2571C2.29042 15.4667 1.76251 16.728 1.33253 18.0366C1.31976 18.0711 1.31124 18.1012 1.30273 18.1356L1.2559 18.2863C0.817396 19.7413 -1.20056 27.296 1.98389 33.1159C1.8732 32.1474 1.31976 31.3252 1.10263 30.3911C1.78806 31.6136 1.99241 33.0471 2.77149 34.2265C2.78 34.2395 3.78047 35.5524 4.4148 35.406C4.57658 35.5136 4.69578 35.6729 4.84053 35.7978L4.83627 35.8021C5.59832 36.5812 6.56473 37.1193 7.30975 37.92C7.40767 37.8382 7.52262 37.7004 7.59073 37.5885C8.72743 38.8196 8.36982 40.7223 9.50651 41.9534C10.541 43.0727 11.9459 43.7872 12.8442 45.0528C15.058 48.1651 16.1904 49.1164 17.2463 49.8913C17.1526 49.7837 17.0164 49.6502 16.9099 49.5512C20.452 51.7983 20.452 51.7983 21.6653 51.9274C19.6601 51.1181 19.0556 50.8728 18.1743 49.93C18.1445 49.8655 18.1062 49.7837 18.0764 49.7191C17.9444 49.6717 17.7742 49.59 17.6592 49.5039C17.7273 49.5125 17.8125 49.5254 17.8806 49.534C17.821 49.4178 17.7146 49.2757 17.6209 49.1853C17.6933 49.1423 17.7869 49.0906 17.8593 49.0476C17.8721 48.9055 17.8721 48.9055 17.2292 48.1952C17.2931 48.2039 17.3825 48.2211 17.4506 48.2297C17.6762 47.9929 17.6762 47.9929 17.2164 46.0515C17.3612 45.8406 17.3612 45.8406 18.0381 45.4575L18.2595 42.0137Z" fill="#E0E0E0"/>
<path d="M24.1686 2.53115C23.0277 3.92157 23.0277 3.92157 23.0958 4.11958C23.1383 4.11958 23.1979 4.12389 23.2405 4.1325C23.3129 4.30038 23.2277 4.53283 23.4364 4.64475C23.4321 5.16562 22.7041 4.88582 22.5636 5.30768C22.6786 5.52721 23.0234 5.60039 22.951 5.93616C22.9085 6.13417 22.7041 6.23749 22.653 6.4355C22.6104 6.60769 22.768 6.75405 22.7084 6.92624C22.5466 7.39114 21.9122 7.50307 21.8824 8.06267C21.8016 9.59084 21.5333 10.0385 21.5291 10.0428L21.2651 10.413C21.2183 10.4604 20.0986 11.5366 19.1791 11.4634C18.7831 11.4332 18.7746 11.4332 18.7491 11.4548C18.715 11.4849 18.681 11.5366 18.6725 11.5839C18.6129 11.9025 18.5107 12.0273 17.6592 12.772C17.242 13.1379 16.6545 13.2197 16.2628 13.6286C15.9819 13.9214 16.1521 14.3949 15.8414 14.6747C15.4795 14.9975 15.4795 14.9975 15.2879 15.725C15.1134 16.3793 14.909 16.7065 14.6749 16.6936C14.5982 16.6893 14.2279 16.6462 14.2789 16.0995C14.0788 15.9661 13.7042 16.2889 13.6318 15.9833C13.5935 15.8326 13.2614 13.8353 13.4701 12.7419C13.4743 12.729 13.751 11.3902 14.3215 11.218C14.5557 11.1448 14.909 10.6842 14.9303 10.3226C14.6323 10.1332 14.3726 9.97396 14.4279 9.62958C14.6962 9.59514 14.7983 9.96535 15.0793 9.90077C15.2283 9.53488 15.0793 9.14745 15.1432 8.77725C15.1176 8.77725 15.0878 8.78156 15.0665 8.78156C14.6791 9.25077 14.6791 9.25077 14.6536 9.26799C14.6025 9.02262 14.5982 8.93653 14.9175 8.5491C15.5646 7.76135 15.9095 6.09113 15.9137 6.07391C15.9819 5.62622 15.8839 5.63483 14.9303 5.73384C14.8622 5.54874 14.8579 5.45834 15.0836 5.18714C14.8622 4.84707 15.3135 4.73085 15.6796 4.64045C15.9223 3.27586 17.557 3.18977 17.5741 3.18977C17.6422 3.18547 18.5234 2.59142 18.6852 2.46658C20.2051 2.46658 22.1081 2.46658 24.2197 2.46658C24.1984 2.48811 24.1814 2.51393 24.1686 2.53115Z" fill="#E0E0E0"/>
<path opacity="0.3" d="M26.0631 46.7231C15.8286 46.7231 6.80316 42.1127 1.47729 35.1047C5.0449 45.3585 14.7047 52.7066 26.0631 52.7066C37.4215 52.7066 47.0813 45.3542 50.6489 35.1047C45.3231 42.117 36.2976 46.7231 26.0631 46.7231Z" fill="#424242"/>
<path opacity="0.2" d="M26.0631 40.7395C16.1564 40.7395 7.20758 37.7004 0.787598 32.806C0.979175 33.5808 1.20907 34.3384 1.46876 35.0831C6.79462 42.1041 15.8201 46.723 26.0631 46.723C36.3061 46.723 45.3316 42.1041 50.6574 35.0831C50.9171 34.3384 51.147 33.5808 51.3386 32.806C44.9186 37.7004 35.9698 40.7395 26.0631 40.7395Z" fill="#424242"/>
<path opacity="0.4" d="M26.0631 7.78717C31.8071 7.78717 36.4636 6.3051 36.4636 4.47687C36.4636 2.64864 31.8071 1.16656 26.0631 1.16656C20.319 1.16656 15.6625 2.64864 15.6625 4.47687C15.6625 6.3051 20.319 7.78717 26.0631 7.78717Z" fill="white"/>
<path d="M24.5603 27.3735C24.5603 27.5543 24.5603 27.7351 24.5603 27.9159C24.9903 27.9288 25.2031 28.5874 25.7183 28.3248C26.1653 28.0967 26.7272 28.1914 27.1317 27.8341C27.7234 27.3132 27.8597 26.4695 28.4344 25.9314C28.4514 25.7119 28.4472 25.5095 28.4472 25.3029C29.1028 25.1393 29.8265 25.2599 30.4226 24.838C32.9046 27.1238 32.8194 27.3649 31.2825 27.5672C31.555 27.7523 31.9126 27.9976 32.1851 28.1827C32.1851 28.1053 32.1851 28.1053 32.8322 27.0334C32.7598 26.9 32.6917 26.7105 32.6747 26.5599C32.8194 26.5599 33.0152 26.6374 33.1259 26.7278C33.0152 26.3188 33.0067 26.2844 32.5257 26.0605C32.5086 25.9744 32.4873 25.8582 32.4746 25.7721C32.4107 25.7936 32.3298 25.8238 32.266 25.8496C31.9722 25.6559 31.7934 25.5397 31.3592 24.584C31.3932 24.5109 31.4358 24.4161 31.4698 24.3473C31.6146 24.3171 31.8147 24.2999 31.9637 24.2999C32.2319 24.8466 32.4065 25.2039 33.3729 25.7721C33.3899 26.3446 34.071 28.0924 34.5947 28.0149C34.6117 27.9503 34.633 27.8642 34.65 27.7996C34.748 27.7652 34.748 27.7652 35.2248 27.7006C35.0119 27.5586 34.8288 27.4337 34.5138 26.8784C34.633 26.8096 34.7863 26.7149 34.897 26.6374C34.8927 26.5685 34.8842 26.4824 34.8757 26.4135C35.923 26.4652 36.0933 29.0006 36.8127 28.045C37.2129 28.3635 37.396 28.5099 38.0431 28.0622C38.2432 28.3162 38.1964 28.7467 38.0176 29.1642L41.5298 30.7397C41.5298 30.7397 41.5341 30.7397 41.5341 30.7354C41.5809 30.7311 41.6107 30.7311 41.632 30.7268L42.0407 29.7755L43.6499 26.3446L43.105 23.891V23.8824L43.7819 20.6926L45.5913 20.3482L43.7649 19.5303L43.7564 19.5174L42.3728 16.7151L41.2148 15.4581L40.3378 13.2369L38.9031 11.7259C38.8094 11.9498 38.7839 12.1822 38.7711 12.3846C38.6263 12.3329 38.4603 12.1865 38.3794 12.0531C38.5114 11.5193 38.0516 11.2309 37.6727 11.2696C38.1836 12.1177 38.3241 12.3458 38.405 12.8064C38.29 12.8538 38.1027 12.8495 37.9878 12.8021C37.8387 12.9011 37.6685 13.0862 37.579 13.2412C37.6557 13.4091 37.7749 13.6243 37.8728 13.775C37.8387 13.8309 37.7919 13.9084 37.7579 13.9687C37.5152 13.8955 37.5152 13.8955 36.9745 13.4952C36.966 13.5856 36.9532 13.7018 36.9405 13.7879C37.0554 13.8912 37.1959 14.0462 37.2725 14.1796C37.1916 14.214 37.0809 14.2657 37.0001 14.3001C36.2338 13.6329 36.2508 13.5382 36.353 13.0776C35.9443 12.8322 35.8336 12.6988 35.4887 12.2253C37.132 12.9614 37.3066 13.0389 37.528 12.2855C35.9272 9.3928 31.5678 9.1173 30.6823 12.6342C30.363 13.9041 29.073 14.623 28.8474 15.9445C28.6643 17.0207 28.9538 18.2303 29.8223 17.6836C30.0522 17.5373 30.1884 17.2747 30.4481 17.1628C30.8142 17.8085 30.8015 18.5962 31.2144 19.2204C31.2953 19.229 31.406 19.2376 31.4911 19.2462C32.0446 18.7727 32.0446 18.7727 32.1212 18.7426C32.1638 18.3422 32.2234 17.8085 32.266 17.4124C33.011 17.1541 32.6236 16.4998 32.6193 16.4912C31.721 15.7853 32.3511 15.1051 33.1472 14.2442C33.0621 13.4048 33.1472 13.267 33.4239 13.0604C33.458 13.0561 33.458 13.0561 33.458 13.0561C34.633 13.2455 33.1515 14.7392 33.2707 15.6045C33.4282 16.7581 34.8799 16.0091 35.493 16.6376C35.0673 17.1197 34.4755 16.8012 33.9816 16.9561C33.8497 17.2488 33.7688 17.4296 34.3605 17.6965C34.4925 18.1528 34.4585 18.1873 34.2669 18.3939C34.2158 18.4025 34.2158 18.4025 34.2158 18.4025C34.186 18.3207 34.1434 18.2088 34.1136 18.127C33.4537 17.8257 33.4793 18.1313 33.5772 19.2634C33.458 19.3495 33.326 19.5174 33.2664 19.6552C33.0238 19.6724 32.8279 19.526 32.6023 19.4787C31.687 20.5333 30.3842 19.8058 30.3459 19.483C30.2906 18.9879 30.414 18.4972 30.3757 17.9979C29.8819 18.3336 29.8776 18.3422 29.6605 18.7383C30.0053 19.8489 30.0053 19.8489 30.0011 19.9178C29.1709 20.2923 28.9453 20.3956 28.6388 21.1317L25.6672 22.8708C25.6927 22.9353 25.7225 23.0214 25.7481 23.086C28.0938 23.9426 26.8039 25.0834 26.7868 25.0963C26.0674 25.5526 25.2627 24.8983 24.539 25.2771C24.4198 25.7119 24.4794 26.3274 24.4922 26.7794C24.3772 26.9129 24.2665 27.1367 24.2452 27.3132C24.3602 27.3218 24.4751 27.3519 24.5603 27.3735Z" fill="#FFAA19"/>
<path d="M41.1765 8.05405C41.2488 8.12292 41.4787 8.38551 41.7767 8.74279C41.5937 8.49312 41.4276 8.22193 41.1765 8.05405Z" fill="#E0E0E0"/>
<path d="M52.1304 26.3533C52.1304 18.9277 49.095 12.221 44.2076 7.43418L44.1821 7.40835C44.6418 7.89048 44.6418 7.89048 44.7653 8.03684C44.1267 7.51167 44.1267 7.51167 43.9437 7.42557C43.9649 7.49014 43.9905 7.57624 44.0118 7.64081C42.858 6.9908 42.3301 5.60039 41.0572 5.09243C41.1168 5.13978 41.1934 5.20005 41.2488 5.2474C40.7677 4.9719 40.3888 4.53713 39.8609 4.33481C40.2824 4.83846 41.236 5.68217 41.2445 5.69078C41.1722 5.66496 41.07 5.62621 40.9976 5.60039C41.2232 6.27622 41.7724 6.77556 41.9938 7.4557C41.8704 7.47723 41.7128 7.57624 41.6362 7.67955C41.8491 7.92922 42.1343 8.26068 42.3429 8.51035C42.4791 8.56201 42.6367 8.68684 42.7346 8.79446C42.4068 8.75141 42.1641 8.48883 41.8448 8.42856C42.1258 8.71267 42.3131 9.06996 42.5771 9.36698C42.3344 9.31963 42.1598 9.1948 42.0108 9.03983C42.8197 10.017 43.9351 11.4117 44.1778 11.7733C43.8926 11.6226 43.8926 11.6226 43.4924 11.0802C43.42 11.0759 43.3221 11.0673 43.254 11.063C43.7691 12.5955 43.7691 12.5955 43.6456 12.8366C43.5775 12.828 43.4839 12.8193 43.4115 12.8107C43.271 11.4892 43.271 11.4892 41.8193 9.28089C41.3084 8.99248 41.3467 8.0024 40.5506 8.12293C41.104 9.31102 41.104 9.31102 42.2067 11.0286C41.6873 10.9597 40.0993 9.96964 40.0866 9.96103C40.3164 10.4647 40.9423 10.7316 40.9338 11.3816C40.8273 11.2912 40.6911 11.1577 40.6059 11.0458C40.4697 11.1018 40.2824 11.162 40.1376 11.2051C40.1249 11.274 40.1121 11.3601 40.1036 11.4289C39.9631 11.373 39.8013 11.2137 39.7375 11.0759C39.3117 11.2051 39.0818 11.4203 38.9584 11.6571L40.4314 13.2154L41.3084 15.4366L42.4664 16.6893L43.8457 19.483L45.8935 20.3999L43.8713 20.783L43.2071 23.9082L43.7563 26.3705L43.7521 26.3834L42.1343 29.8271L41.7299 30.7656C41.9555 31.5964 42.2322 32.3454 42.9134 31.7901C43.2284 32.1043 43.2284 32.1043 45.042 32.3841C45.2847 32.849 45.2847 32.8619 45.3017 33.1547C45.3741 33.1504 45.472 33.1418 45.5486 33.1331C45.5316 33.2623 45.4465 33.4302 45.3443 33.5077C45.3996 33.6325 45.5274 33.7745 45.6423 33.8434C45.7019 33.7875 45.7828 33.7143 45.8424 33.6626C45.8722 34.9885 45.5997 36.2842 45.4976 37.5971C46.1064 37.4507 48.2733 33.7745 48.2903 33.7401C48.4436 33.7315 48.6394 33.6454 48.7629 33.5593C48.848 33.8477 48.848 33.8477 48.7203 35.4663C48.8395 35.3845 48.9843 35.2554 49.0737 35.1434C48.9885 36.706 48.0179 37.9845 47.7284 39.4826C48.55 38.5872 48.4266 37.313 48.9715 36.3057C49.112 36.8309 48.831 37.5842 48.8268 37.5928C49.9166 36.4736 51.428 32.0785 51.4365 32.0398C51.5812 31.5404 51.5812 31.5404 52.0708 26.4264C52.0878 26.7063 52.0878 26.7063 52.0665 27.1841C52.0751 27.1109 52.0878 27.0076 52.0963 26.9344C52.1049 27.1195 52.1091 27.3649 52.1006 27.55C52.1176 27.2185 52.1304 26.788 52.1304 26.3533Z" fill="#E0E0E0"/>
<path d="M42.0151 9.03121C41.93 8.9322 41.8534 8.8332 41.7767 8.7428C41.8491 8.84611 41.93 8.94081 42.0151 9.03121Z" fill="#E0E0E0"/>
<path d="M42.8198 32.6037C42.8368 32.4229 42.8581 32.1818 42.8751 32.001C42.6069 32.6338 42.2238 32.6769 41.7384 32.7328C41.6064 32.1302 41.3212 31.5792 41.1765 30.9851C41.2361 30.9119 41.334 30.8388 41.4319 30.7914L37.992 29.2503C37.7238 29.8315 37.2087 30.3523 36.7659 30.2791C36.6935 30.2662 36.6084 30.2275 36.5403 30.206C36.404 30.1672 36.404 30.1672 36.404 30.1672C35.51 30.1199 34.7309 29.5258 33.8071 29.6162C33.3856 29.655 33.607 30.1844 33.4623 30.4513C32.6193 30.5073 30.5588 29.3192 30.5418 29.3106C30.7546 27.7092 30.7546 27.7093 28.3365 28.0924C25.6374 28.5185 25.6374 28.5185 25.6203 28.5099C25.6076 28.5185 25.6076 28.5185 25.0286 29.0911C24.9562 29.1513 24.9562 29.1513 24.9562 29.1513C24.9392 29.1599 22.0272 33.1934 21.8824 33.5894C22.3678 34.1017 22.4614 34.4891 22.2315 35.0746C21.4482 37.0805 24.705 38.6431 24.7348 38.6561C26.1227 39.2759 27.8554 37.0978 28.9453 38.7723C29.2646 38.8153 29.5711 38.7034 29.8861 38.6991C30.2267 47.5538 30.2267 47.5538 30.1714 48.079C30.214 48.0876 31.2229 48.3287 32.1851 47.6356C32.4065 47.4764 32.7811 47.1621 33.011 46.9383C33.3729 46.5896 33.7603 46.2624 34.1179 45.9095C34.4201 45.6081 34.2882 45.1217 34.5819 44.8204C35.0545 44.3339 35.774 44.2263 36.238 43.7313C36.966 42.9607 36.4424 41.8071 37.0469 40.9978C38.2006 39.4524 40.5038 38.9617 40.904 36.719C40.3037 36.5855 39.7843 36.9471 39.2139 36.9945C39.184 36.8352 39.1287 36.6286 39.0819 36.4693C41.2871 36.0259 44.3098 33.9381 43.3179 32.8275C43.2072 32.6984 42.9773 32.6424 42.8198 32.6037ZM36.6339 30.2662C36.8681 30.447 37.1065 30.8732 37.3364 31.5189C37.098 30.8947 36.8596 30.4729 36.6339 30.2662ZM39.0776 36.4564C39.0606 36.4176 39.0436 36.3617 39.0265 36.3229C38.7924 35.7633 38.5029 35.5782 38.3113 35.4577C38.4561 34.8077 38.0984 34.5494 37.9239 34.4246C38.0005 34.2265 38.0772 33.9037 38.0005 33.5034C37.9835 33.4259 37.9452 33.3226 37.9196 33.2451C37.8898 33.159 37.8047 33.0686 37.7749 32.9825C37.6216 32.5262 37.5237 32.0527 37.3619 31.5964C37.7451 31.0023 38.1793 32.397 38.1836 32.41C38.2049 32.4961 38.2049 32.6209 38.1878 32.707C38.5753 33.0083 38.5327 33.4603 38.5029 33.7918C39.0819 34.304 39.0819 34.7603 39.0776 36.4564Z" fill="#E0E0E0"/>
</g>
<defs>
<clipPath id="clip0">
<rect width="52.1304" height="59" fill="white"/>
</clipPath>
</defs>
</svg>
