<svg width="45" height="45" viewBox="0 0 45 45" fill="none" xmlns="http://www.w3.org/2000/svg">
<path d="M22.5 0C10.0744 0 0 10.0744 0 22.5C0 34.9256 10.0744 45 22.5 45C34.9256 45 45 34.9256 45 22.5C45 10.0744 34.9256 0 22.5 0ZM33.75 24.375H24.375V33.75C24.375 34.7869 23.535 35.625 22.5 35.625C21.465 35.625 20.625 34.7869 20.625 33.75V24.375H11.25C10.215 24.375 9.375 23.5369 9.375 22.5C9.375 21.4631 10.215 20.625 11.25 20.625H20.625V11.25C20.625 10.2131 21.465 9.375 22.5 9.375C23.535 9.375 24.375 10.2131 24.375 11.25V20.625H33.75C34.785 20.625 35.625 21.4631 35.625 22.5C35.625 23.5369 34.785 24.375 33.75 24.375Z" fill="white"/>
</svg>
