<svg width="103" height="217" viewBox="0 0 103 217" fill="none" xmlns="http://www.w3.org/2000/svg">
<g opacity="0.5" filter="url(#filter0_d)">
<path d="M13.8 196.46L13.8 208.58L5.52 208.58L5.52 174.98L13.8 174.98L13.8 187.1L48 187.1L48 196.46L13.8 196.46ZM26.76 174.507C23.36 174.507 20.28 173.947 17.52 172.827C14.76 171.667 12.42 170.067 10.5 168.027C8.54 165.987 7.04 163.567 6 160.767C4.96 157.967 4.44 154.907 4.44 151.587C4.44 148.267 4.96 145.207 5.99999 142.407C7.04 139.607 8.54 137.187 10.5 135.147C12.42 133.107 14.76 131.527 17.52 130.407C20.28 129.247 23.36 128.667 26.76 128.667C30.16 128.667 33.24 129.247 36 130.407C38.76 131.527 41.12 133.107 43.08 135.147C45 137.187 46.48 139.607 47.52 142.407C48.56 145.207 49.08 148.267 49.08 151.587C49.08 154.907 48.56 157.967 47.52 160.767C46.48 163.567 45 165.987 43.08 168.027C41.12 170.067 38.76 171.667 36 172.827C33.24 173.947 30.16 174.507 26.76 174.507ZM26.76 164.787C28.76 164.787 30.6 164.487 32.28 163.887C33.92 163.247 35.36 162.347 36.6 161.187C37.8 160.027 38.74 158.647 39.42 157.047C40.1 155.407 40.44 153.587 40.44 151.587C40.44 149.587 40.1 147.787 39.42 146.187C38.74 144.547 37.8 143.147 36.6 141.987C35.36 140.827 33.92 139.947 32.28 139.347C30.6 138.707 28.76 138.387 26.76 138.387C24.8 138.387 22.98 138.707 21.3 139.347C19.62 139.947 18.18 140.827 16.98 141.987C15.74 143.147 14.78 144.547 14.1 146.187C13.42 147.787 13.08 149.587 13.08 151.587C13.08 153.587 13.42 155.407 14.1 157.047C14.78 158.647 15.74 160.027 16.98 161.187C18.18 162.347 19.62 163.247 21.3 163.887C22.98 164.487 24.8 164.787 26.76 164.787ZM13.8 116.085L13.8 128.205L5.52 128.205L5.51999 94.605L13.8 94.605L13.8 106.725L48 106.725L48 116.085L13.8 116.085ZM5.51999 83.3797L5.51999 75.6397L48 57.1597L48 67.7197L39 71.3797L39 87.8797L48 91.4197L48 101.74L5.51999 83.3797ZM17.88 79.7797L31.08 84.9397L31.08 74.5597L17.88 79.7797ZM5.51999 54.527L5.51999 45.167L39.36 45.167L39.36 27.827L48 27.827L48 54.527L5.51999 54.527ZM87.665 142.799L71.61 124.924C70.7867 124.014 69.855 123.104 68.815 122.194C67.775 121.284 66.5617 120.829 65.175 120.829C63.615 120.829 62.4017 121.393 61.535 122.519C60.625 123.646 60.17 124.968 60.17 126.484C60.17 128.304 60.7333 129.734 61.86 130.774C62.9867 131.771 64.3733 132.334 66.02 132.464L65.305 142.214C62.9217 142.084 60.8633 141.586 59.13 140.719C57.3533 139.853 55.88 138.704 54.71 137.274C53.54 135.844 52.6733 134.176 52.11 132.269C51.5033 130.319 51.2 128.218 51.2 125.964C51.2 123.884 51.5033 121.934 52.11 120.114C52.6733 118.294 53.54 116.713 54.71 115.369C55.8367 114.026 57.2667 112.986 59 112.249C60.7333 111.469 62.7483 111.079 65.045 111.079C66.5183 111.079 67.8617 111.231 69.075 111.534C70.245 111.838 71.3283 112.271 72.325 112.834C73.2783 113.354 74.1667 113.983 74.99 114.719C75.8133 115.456 76.615 116.258 77.395 117.124L89.42 131.099L89.42 110.689L98 110.689L98 142.799L87.665 142.799ZM74.99 107.373C72.26 107.373 69.4867 107.134 66.67 106.658C63.8533 106.138 61.2967 105.249 59 103.993C56.7033 102.693 54.84 100.938 53.41 98.7276C51.9367 96.5176 51.2 93.7009 51.2 90.2776C51.2 86.8542 51.9367 84.0376 53.41 81.8276C54.84 79.6176 56.7033 77.8842 59 76.6276C61.2967 75.3276 63.8533 74.4392 66.67 73.9626C69.4867 73.4426 72.26 73.1826 74.99 73.1826C77.72 73.1826 80.4933 73.4426 83.31 73.9626C86.1267 74.4392 88.6833 75.3276 90.98 76.6276C93.2767 77.8842 95.1617 79.6176 96.635 81.8276C98.065 84.0376 98.78 86.8542 98.78 90.2776C98.78 93.7009 98.065 96.5176 96.635 98.7276C95.1617 100.938 93.2767 102.693 90.98 103.993C88.6833 105.249 86.1267 106.138 83.31 106.658C80.4933 107.134 77.72 107.373 74.99 107.373ZM74.99 97.6226C76.2033 97.6226 77.655 97.5792 79.345 97.4926C81.035 97.3626 82.66 97.0592 84.22 96.5826C85.78 96.1059 87.1017 95.3909 88.185 94.4376C89.2683 93.4409 89.81 92.0542 89.81 90.2776C89.81 88.5442 89.2683 87.1792 88.185 86.1826C87.1017 85.1859 85.78 84.4492 84.22 83.9726C82.66 83.4959 81.035 83.2142 79.345 83.1276C77.655 82.9976 76.2033 82.9326 74.99 82.9326C73.7767 82.9326 72.325 82.9976 70.635 83.1276C68.945 83.2142 67.32 83.4959 65.76 83.9726C64.2 84.4492 62.8783 85.1859 61.795 86.1826C60.7117 87.1792 60.17 88.5442 60.17 90.2776C60.17 92.0542 60.7117 93.4409 61.795 94.4376C62.8783 95.3909 64.2 96.1059 65.76 96.5826C67.32 97.0592 68.945 97.3626 70.635 97.4926C72.325 97.5792 73.7767 97.6226 74.99 97.6226ZM87.665 69.8658L71.61 51.9908C70.7867 51.0808 69.855 50.1708 68.815 49.2608C67.775 48.3508 66.5617 47.8958 65.175 47.8958C63.615 47.8958 62.4017 48.4591 61.535 49.5858C60.625 50.7124 60.17 52.0341 60.17 53.5508C60.17 55.3708 60.7333 56.8008 61.86 57.8408C62.9867 58.8374 64.3733 59.4008 66.02 59.5308L65.305 69.2808C62.9217 69.1508 60.8633 68.6524 59.13 67.7858C57.3533 66.9191 55.88 65.7708 54.71 64.3408C53.54 62.9108 52.6733 61.2424 52.11 59.3358C51.5033 57.3858 51.2 55.2841 51.2 53.0308C51.2 50.9508 51.5033 49.0008 52.11 47.1808C52.6733 45.3608 53.54 43.7791 54.71 42.4358C55.8367 41.0924 57.2667 40.0524 59 39.3158C60.7333 38.5358 62.7483 38.1458 65.045 38.1458C66.5183 38.1458 67.8617 38.2974 69.075 38.6008C70.245 38.9041 71.3283 39.3374 72.325 39.9008C73.2783 40.4208 74.1667 41.0491 74.99 41.7858C75.8133 42.5224 76.615 43.3241 77.395 44.1908L89.42 58.1658L89.42 37.7558L98 37.7558L98 69.8658L87.665 69.8658ZM74.99 34.439C72.26 34.439 69.4867 34.2006 66.67 33.724C63.8533 33.204 61.2967 32.3156 59 31.059C56.7033 29.759 54.84 28.004 53.41 25.794C51.9367 23.584 51.2 20.7673 51.2 17.344C51.2 13.9206 51.9367 11.104 53.41 8.89398C54.84 6.68398 56.7033 4.95065 59 3.69398C61.2967 2.39398 63.8533 1.50565 66.67 1.02898C69.4867 0.50898 72.26 0.24898 74.99 0.24898C77.72 0.24898 80.4933 0.508979 83.31 1.02898C86.1267 1.50565 88.6833 2.39398 90.98 3.69398C93.2767 4.95065 95.1617 6.68398 96.635 8.89398C98.065 11.104 98.78 13.9206 98.78 17.344C98.78 20.7673 98.065 23.584 96.635 25.794C95.1617 28.004 93.2767 29.759 90.98 31.059C88.6833 32.3156 86.1267 33.204 83.31 33.724C80.4933 34.2006 77.72 34.439 74.99 34.439ZM74.99 24.689C76.2033 24.689 77.655 24.6456 79.345 24.559C81.035 24.429 82.66 24.1256 84.22 23.649C85.78 23.1723 87.1017 22.4573 88.185 21.504C89.2683 20.5073 89.81 19.1206 89.81 17.344C89.81 15.6106 89.2683 14.2456 88.185 13.249C87.1017 12.2523 85.78 11.5156 84.22 11.039C82.66 10.5623 81.035 10.2806 79.345 10.194C77.655 10.064 76.2033 9.99898 74.99 9.99898C73.7767 9.99898 72.325 10.064 70.635 10.194C68.945 10.2806 67.32 10.5623 65.76 11.039C64.2 11.5156 62.8783 12.2523 61.795 13.249C60.7117 14.2456 60.17 15.6106 60.17 17.344C60.17 19.1206 60.7117 20.5073 61.795 21.504C62.8783 22.4573 64.2 23.1723 65.76 23.649C67.32 24.1256 68.945 24.429 70.635 24.559C72.325 24.6456 73.7767 24.689 74.99 24.689Z" fill="white" fill-opacity="0.5"/>
</g>
<defs>
<filter id="filter0_d" x="0.439995" y="0.248962" width="102.34" height="216.331" filterUnits="userSpaceOnUse" color-interpolation-filters="sRGB">
<feFlood flood-opacity="0" result="BackgroundImageFix"/>
<feColorMatrix in="SourceAlpha" type="matrix" values="0 0 0 0 0 0 0 0 0 0 0 0 0 0 0 0 0 0 127 0"/>
<feOffset dy="4"/>
<feGaussianBlur stdDeviation="2"/>
<feColorMatrix type="matrix" values="0 0 0 0 0 0 0 0 0 0 0 0 0 0 0 0 0 0 0.25 0"/>
<feBlend mode="normal" in2="BackgroundImageFix" result="effect1_dropShadow"/>
<feBlend mode="normal" in="SourceGraphic" in2="effect1_dropShadow" result="shape"/>
</filter>
</defs>
</svg>
